<svg width="287" height="257" viewBox="0 0 287 257" fill="none" xmlns="http://www.w3.org/2000/svg">
<path d="M143.418 256.322C222.626 256.322 286.836 218.6 286.836 172.068C286.836 125.536 222.626 87.8138 143.418 87.8138C64.2105 87.8138 0 125.536 0 172.068C0 218.6 64.2105 256.322 143.418 256.322Z" fill="#F5F5F5" fill-opacity="0.1"/>
<path d="M12.6986 193.743L99.6946 243.967C100.806 244.53 102.035 244.823 103.281 244.823C104.527 244.823 105.756 244.53 106.868 243.967L270.686 149.383C272.671 148.24 272.671 146.376 270.686 145.246L183.696 95.0169C182.585 94.4537 181.356 94.1603 180.11 94.1603C178.864 94.1603 177.635 94.4537 176.523 95.0169L12.6986 189.601C10.7204 190.743 10.7204 192.601 12.6986 193.743Z" fill="#E0E0E0"/>
<path opacity="0.1" d="M167.998 128.585C177.628 128.585 185.434 124.079 185.434 118.52C185.434 112.961 177.628 108.455 167.998 108.455C158.368 108.455 150.561 112.961 150.561 118.52C150.561 124.079 158.368 128.585 167.998 128.585Z" fill="black"/>
<path d="M18.5128 176.415C17.3103 177.359 17.4246 178.7 18.9037 179.548L99.9052 226.32C100.819 226.78 101.828 227.021 102.851 227.021C103.875 227.021 104.884 226.78 105.798 226.32L260.591 136.943C262.089 136.077 262.215 134.712 260.94 133.768C261.699 134.345 262.324 135.08 262.772 135.922C263.221 136.763 263.482 137.692 263.538 138.644V142.54C263.485 143.563 263.19 144.56 262.678 145.447C262.166 146.334 261.451 147.087 260.591 147.645L105.81 237.016C104.896 237.482 103.886 237.724 102.86 237.724C101.835 237.724 100.825 237.482 99.9112 237.016L18.8856 190.256C18.0267 189.698 17.3121 188.944 16.8 188.057C16.288 187.17 15.9931 186.174 15.9395 185.151V181.249C15.9956 180.306 16.2545 179.386 16.6986 178.551C17.1427 177.717 17.7615 176.988 18.5128 176.415Z" fill="#263238"/>
<path d="M18.8855 179.548L99.887 226.32C100.801 226.78 101.81 227.021 102.833 227.021C103.857 227.021 104.866 226.78 105.779 226.32L260.591 136.943C262.221 136.005 262.221 134.477 260.591 133.545L179.59 86.7676C178.677 86.3067 177.669 86.0667 176.647 86.0667C175.624 86.0667 174.616 86.3067 173.703 86.7676L18.8855 176.151C17.2801 177.089 17.2741 178.616 18.8855 179.548ZM161.251 98.8649C162.64 98.0592 164.089 98.5222 165.46 99.3339L239.114 141.861C240.503 142.661 240.509 143.965 239.114 144.777L118.61 214.361C117.826 214.756 116.96 214.963 116.082 214.963C115.204 214.963 114.338 214.756 113.554 214.361L39.9295 171.834C38.5286 171.028 38.5286 169.723 39.9295 168.923L161.251 98.8649Z" fill="#455A64"/>
<path d="M260.946 133.768C261.704 134.345 262.33 135.08 262.778 135.922C263.226 136.763 263.487 137.692 263.543 138.644V142.54C263.49 143.563 263.195 144.559 262.683 145.447C262.171 146.334 261.456 147.087 260.597 147.645L105.809 237.016C104.9 237.502 103.881 237.746 102.851 237.725V227.047C103.879 227.069 104.895 226.827 105.803 226.344L260.591 136.943C262.094 136.077 262.22 134.712 260.946 133.768Z" fill="#37474F"/>
<path d="M212.328 114.75C211.24 114.149 211.24 113.097 212.328 112.471C212.94 112.16 213.617 111.998 214.303 111.998C214.99 111.998 215.666 112.16 216.278 112.471C217.373 113.073 217.373 114.119 216.278 114.75C215.666 115.061 214.99 115.223 214.303 115.223C213.617 115.223 212.94 115.061 212.328 114.75Z" fill="black"/>
<path d="M67.0582 201.794C65.3709 201.828 63.7029 201.431 62.212 200.64C60.8472 199.846 60.0956 198.776 60.0956 197.634C60.0956 196.491 60.8472 195.409 62.212 194.627C64.8816 193.088 69.2287 193.088 71.8983 194.627C73.2691 195.421 74.0207 196.491 74.0207 197.634C74.0207 198.776 73.2691 199.864 71.8983 200.64C70.4093 201.43 68.7434 201.827 67.0582 201.794ZM67.0582 194.206C65.5047 194.176 63.9692 194.542 62.5968 195.271C61.4845 195.914 60.8652 196.75 60.8652 197.616C60.8652 198.481 61.4664 199.323 62.5968 199.966C63.9789 200.666 65.5061 201.03 67.0551 201.03C68.6041 201.03 70.1314 200.666 71.5135 199.966C72.6318 199.323 73.2451 198.487 73.2451 197.616C73.2451 196.744 72.6438 195.914 71.5135 195.271C70.1455 194.534 68.6118 194.159 67.0582 194.182V194.206Z" fill="#E6E6E6"/>
<path d="M214.294 122.314L199.052 113.511C198.138 112.988 198.096 112.159 198.95 111.666C199.45 111.426 199.999 111.307 200.553 111.318C201.108 111.328 201.652 111.468 202.142 111.726L217.39 120.528C218.298 121.057 218.34 121.881 217.487 122.374C216.987 122.615 216.438 122.735 215.883 122.724C215.329 122.714 214.784 122.573 214.294 122.314Z" fill="black"/>
<path d="M161.251 98.8649C162.64 98.0592 164.089 98.5221 165.46 99.3338L239.114 141.861C240.503 142.661 240.509 143.965 239.114 144.777L118.61 214.361C117.826 214.756 116.96 214.963 116.082 214.963C115.204 214.963 114.338 214.756 113.554 214.361L39.9295 171.834C38.5286 171.028 38.5286 169.723 39.9295 168.923L161.251 98.8649Z" fill="url(#paint0_linear_1_124)"/>
<path d="M159.401 54.2089L157.873 54.9845L167.359 73.6748L168.887 72.8992L159.401 54.2089Z" fill="#37474F"/>
<path d="M177.018 52.7092L167.764 67.6575L169.221 68.5594L178.475 53.6112L177.018 52.7092Z" fill="#37474F"/>
<path d="M166.693 50.9266V118.568C166.703 118.697 166.747 118.821 166.821 118.926C166.895 119.032 166.996 119.116 167.114 119.169C167.428 119.327 167.775 119.408 168.127 119.408C168.479 119.408 168.825 119.327 169.14 119.169C169.258 119.117 169.36 119.033 169.434 118.927C169.508 118.821 169.552 118.697 169.561 118.568V50.9266H166.693Z" fill="#37474F"/>
<path d="M165.433 43.3819C166.544 34.3614 160.132 26.1484 151.111 25.0376C142.091 23.9268 133.878 30.3389 132.767 39.3594C131.656 48.3799 138.068 56.593 147.089 57.7037C156.109 58.8145 164.322 52.4024 165.433 43.3819Z" fill="url(#paint1_linear_1_124)"/>
<path opacity="0.15" d="M143.707 43.2906C138.981 35.2037 140.346 28.6199 140.989 27.0566C142.035 24.5133 146.148 24.9222 149.1 24.9222C151.873 24.9231 154.6 25.6245 157.029 26.9613C159.458 28.2981 161.51 30.2269 162.994 32.5687C164.478 34.9104 165.347 37.5893 165.519 40.3565C165.691 43.1236 165.162 45.8895 163.979 48.3972C162.797 50.9049 161 53.0733 158.755 54.7009C156.511 56.3285 153.891 57.3627 151.14 57.7074C148.389 58.052 145.596 57.6961 143.019 56.6725C140.442 55.649 138.166 53.991 136.402 51.8525C141.278 53.2835 148.294 51.143 143.707 43.2906Z" fill="black"/>
<path d="M192.144 56.4087C199.645 53.3017 203.207 44.7022 200.1 37.2012C196.993 29.7002 188.394 26.1382 180.893 29.2452C173.392 32.3522 169.83 40.9517 172.937 48.4527C176.044 55.9537 184.643 59.5157 192.144 56.4087Z" fill="url(#paint2_linear_1_124)"/>
<path opacity="0.15" d="M186.516 28.1268C189.601 28.1226 192.608 29.0927 195.108 30.8986C195.505 39.8814 187.893 48.6358 190.01 51.5819C192.126 54.5281 197.393 52.7183 199.221 50.2171C197.925 52.4464 196.065 54.2955 193.828 55.5788C191.591 56.8621 189.056 57.5344 186.478 57.5283C183.899 57.5222 181.367 56.8379 179.136 55.5439C176.906 54.25 175.055 52.3921 173.769 50.1567C172.483 47.9212 171.808 45.3869 171.812 42.8082C171.815 40.2294 172.497 37.6969 173.788 35.4648C175.08 33.2328 176.936 31.3798 179.17 30.0918C181.404 28.8038 183.938 28.1261 186.516 28.1268Z" fill="black"/>
<path d="M168.13 53.9449C183.026 53.9449 195.102 41.8689 195.102 26.9724C195.102 12.076 183.026 0 168.13 0C153.233 0 141.157 12.076 141.157 26.9724C141.157 41.8689 153.233 53.9449 168.13 53.9449Z" fill="url(#paint3_linear_1_124)"/>
<path opacity="0.1" d="M187.719 8.44769C188.192 10.4639 188.435 12.5275 188.44 14.5986C188.44 29.4977 180.991 45.4251 161.083 45.4251C153.369 45.4251 144.248 40.4226 141.885 33.1354C142.488 35.7077 143.467 38.1773 144.789 40.4647C144.976 40.7773 145.162 41.0659 145.39 41.3966V41.4387C146.353 42.949 147.465 44.359 148.709 45.6475L148.854 45.8039C149.052 46.0083 149.263 46.2127 149.455 46.4051L149.695 46.6336C149.894 46.82 150.098 47.0004 150.297 47.1807L150.579 47.4273C150.778 47.6016 150.982 47.77 151.181 47.9383L151.481 48.1728L152.118 48.6659L152.299 48.7921C152.744 49.1168 153.195 49.4234 153.658 49.7181L154.006 49.9405C154.199 50.0608 154.397 50.169 154.608 50.2832L155.077 50.5538L155.648 50.8604L156.159 51.125L156.73 51.3956L157.277 51.6421L157.842 51.8886L158.444 52.1231C158.624 52.1952 158.804 52.2674 158.985 52.3275L159.773 52.5981L160.476 52.8145C160.747 52.8927 161.017 52.9769 161.294 53.049L161.823 53.1753L162.508 53.3316L163.073 53.4459L163.747 53.5661L164.348 53.6563L165.034 53.7405L165.635 53.8066L166.368 53.8607L166.915 53.8968H167.883H168.19C173.446 53.8786 178.582 52.3245 182.967 49.4255C187.351 46.5266 190.792 42.4093 192.867 37.5801C194.942 32.7509 195.561 27.4206 194.646 22.2447C193.731 17.0688 191.323 12.2731 187.719 8.44769Z" fill="black"/>
<path d="M87.3565 45.87C86.9841 45.6143 86.5497 45.4637 86.0989 45.4341C85.6482 45.4045 85.1978 45.4969 84.7951 45.7016C82.3901 46.7538 80.2857 50.5117 80.1294 54.1553C80.0332 56.3078 80.6465 57.9132 81.6626 58.6407L84.3081 60.5467C84.6789 60.7988 85.1108 60.9465 85.5583 60.974C86.0059 61.0015 86.4526 60.9079 86.8515 60.703C89.2565 59.6568 91.3609 55.8929 91.5232 52.2493C91.6134 50.1148 91.0122 48.5155 90.0081 47.782L87.3565 45.87Z" fill="url(#paint4_linear_1_124)"/>
<path opacity="0.3" d="M87.3565 45.87C86.9841 45.6143 86.5497 45.4637 86.0989 45.4341C85.6482 45.4045 85.1978 45.4969 84.7951 45.7016C82.3901 46.7538 80.2857 50.5117 80.1294 54.1553C80.0332 56.3078 80.6465 57.9132 81.6626 58.6407L84.3081 60.5467C84.6789 60.7988 85.1108 60.9465 85.5583 60.974C86.0059 61.0015 86.4526 60.9079 86.8515 60.703C89.2565 59.6568 91.3609 55.8929 91.5232 52.2493C91.6134 50.1148 91.0122 48.5155 90.0081 47.782L87.3565 45.87Z" fill="black"/>
<path d="M90.5975 36.3401C88.7938 35.0293 86.4489 34.7948 83.8695 35.9132C79.4562 37.8192 75.4518 43.1884 73.2753 49.4655C72.8364 50.7402 72.9747 52.0269 73.6 52.5139C74.3335 53.0791 75.5961 53.9148 76.2215 54.3958C77.0151 54.9971 78.2537 54.1193 78.8069 52.5079C80.3341 48.0646 83.16 44.2767 86.2625 42.9359C87.2906 42.4475 88.4523 42.3163 89.5634 42.5631C89.9614 43.1339 90.2828 43.7545 90.5194 44.4089C90.6013 44.6476 90.7519 44.8568 90.9523 45.0102L93.5918 46.9102C94.157 47.313 95.0108 46.9643 95.6722 45.9542C96.0087 45.4555 96.2363 44.8914 96.3399 44.2988C96.4435 43.7061 96.4208 43.0983 96.2734 42.515C95.7163 40.8223 94.6701 39.3327 93.2671 38.234L90.5975 36.3401Z" fill="url(#paint5_linear_1_124)"/>
<path opacity="0.3" d="M90.5975 36.3401C88.7938 35.0293 86.4489 34.7948 83.8695 35.9132C79.4562 37.8192 75.4518 43.1884 73.2753 49.4655C72.8364 50.7402 72.9747 52.0269 73.6 52.5139C74.3335 53.0791 75.5961 53.9148 76.2215 54.3958C77.0151 54.9971 78.2537 54.1193 78.8069 52.5079C80.3341 48.0646 83.16 44.2767 86.2625 42.9359C87.2906 42.4475 88.4523 42.3163 89.5634 42.5631C89.9614 43.1339 90.2828 43.7545 90.5194 44.4089C90.6013 44.6476 90.7519 44.8568 90.9523 45.0102L93.5918 46.9102C94.157 47.313 95.0108 46.9643 95.6722 45.9542C96.0087 45.4555 96.2363 44.8914 96.3399 44.2988C96.4435 43.7061 96.4208 43.0983 96.2734 42.515C95.7163 40.8223 94.6701 39.3327 93.2671 38.234L90.5975 36.3401Z" fill="black"/>
<path d="M100.813 32.7024C99.8903 30.5884 98.4413 28.7461 96.6042 27.3512C96.1532 27.0205 94.3675 25.7399 93.9286 25.4272C90.9884 23.3108 86.0821 22.7576 81.9034 24.5494C74.5741 27.73 69.7941 32.3657 65.3748 43.4349C64.8397 44.7817 65.0441 46.1586 65.7175 46.6877L66.2647 47.1086C67.0283 47.7098 68.2128 48.4614 68.8862 48.9905C69.6498 49.5918 70.8222 48.762 71.4235 47.2348C74.3817 39.7432 80.0996 34.0553 85.4629 31.7344C88.2347 30.5319 90.784 30.5319 92.9305 31.518C93.849 32.4958 94.5988 33.6194 95.1491 34.8429C95.2384 35.0477 95.3793 35.2259 95.558 35.36C95.9428 35.6306 98.0231 37.1638 98.1795 37.2479C98.7507 37.6568 99.5984 37.3261 100.26 36.316C101.041 35.1856 101.258 33.6344 100.813 32.7024Z" fill="url(#paint6_linear_1_124)"/>
<path opacity="0.3" d="M100.813 32.7024C99.8903 30.5884 98.4413 28.7461 96.6042 27.3512C96.1532 27.0205 94.3675 25.7399 93.9286 25.4272C90.9884 23.3108 86.0821 22.7576 81.9034 24.5494C74.5741 27.73 69.7941 32.3657 65.3748 43.4349C64.8397 44.7817 65.0441 46.1586 65.7175 46.6877L66.2647 47.1086C67.0283 47.7098 68.2128 48.4614 68.8862 48.9905C69.6498 49.5918 70.8222 48.762 71.4235 47.2348C74.3817 39.7432 80.0996 34.0553 85.4629 31.7344C88.2347 30.5319 90.784 30.5319 92.9305 31.518C93.849 32.4958 94.5988 33.6194 95.1491 34.8429C95.2384 35.0477 95.3793 35.2259 95.558 35.36C95.9428 35.6306 98.0231 37.1638 98.1795 37.2479C98.7507 37.6568 99.5984 37.3261 100.26 36.316C101.041 35.1856 101.258 33.6344 100.813 32.7024Z" fill="black"/>
<path d="M91.5232 52.2493C91.3608 55.8569 89.2745 59.6568 86.8514 60.703C84.4283 61.7492 82.6005 59.6689 82.7568 56.0493C82.9131 52.4297 85.0236 48.6418 87.4286 47.5956C89.8336 46.5494 91.6795 48.6297 91.5232 52.2493Z" fill="url(#paint7_linear_1_124)"/>
<path d="M86.4969 37.8011C82.0837 39.7131 78.0793 45.0763 75.9087 51.3595C75.4638 52.6281 75.6021 53.9208 76.2274 54.4018C77.0211 55.0031 78.2597 54.1252 78.8128 52.5139C80.34 48.0706 83.1659 44.2827 86.2684 42.9418C89.3709 41.601 91.9684 43.038 93.1528 46.3029C93.5857 47.5054 94.8003 47.325 95.6781 45.9842C96.0147 45.4855 96.2422 44.9214 96.3458 44.3288C96.4495 43.7361 96.4268 43.1283 96.2794 42.545C94.5898 37.9334 90.9161 35.8891 86.4969 37.8011Z" fill="url(#paint8_linear_1_124)"/>
<path d="M85.126 26.5997C80.3159 28.5237 77.015 30.9588 74.2131 34.4762C71.6781 37.7163 69.6954 41.3527 68.3448 45.2387C67.8458 46.5975 67.5812 48.0406 68.91 48.9905C69.6736 49.5918 70.8461 48.7621 71.4473 47.2349C74.4055 39.7432 80.1235 34.0553 85.4867 31.7344C90.8499 29.4136 95.4015 31.5661 97.8005 36.7309C98.2935 37.7891 99.4359 37.6087 100.284 36.316C101.029 35.1736 101.234 33.6224 100.801 32.7085C97.8666 26.3953 91.367 24.1045 85.126 26.5997Z" fill="url(#paint9_linear_1_124)"/>
<path d="M246.342 11.1112L233.986 3.98032C233.392 3.67638 232.735 3.51788 232.068 3.51788C231.401 3.51788 230.743 3.67638 230.15 3.98032L228.586 4.88221C228.028 5.24289 227.564 5.73056 227.23 6.30534C226.897 6.88011 226.704 7.52565 226.668 8.18913V22.469C226.704 23.1349 226.897 23.783 227.23 24.3607C227.563 24.9383 228.028 25.4294 228.586 25.794L240.942 32.9249C241.536 33.2288 242.193 33.3873 242.86 33.3873C243.527 33.3873 244.185 33.2288 244.778 32.9249L246.342 32.023C246.899 31.659 247.363 31.1689 247.697 30.5924C248.03 30.0158 248.223 29.3689 248.26 28.7041V14.4362C248.224 13.7703 248.031 13.1222 247.698 12.5445C247.365 11.9669 246.9 11.4758 246.342 11.1112Z" fill="url(#paint10_linear_1_124)"/>
<path opacity="0.8" d="M246.342 11.1112L233.986 3.98032C233.392 3.67638 232.735 3.51788 232.068 3.51788C231.401 3.51788 230.743 3.67638 230.15 3.98032L228.586 4.88221C228.028 5.24289 227.564 5.73056 227.23 6.30534C226.897 6.88011 226.704 7.52565 226.668 8.18913V22.469C226.704 23.1349 226.897 23.783 227.23 24.3607C227.563 24.9383 228.028 25.4294 228.586 25.794L240.942 32.9249C241.536 33.2288 242.193 33.3873 242.86 33.3873C243.527 33.3873 244.185 33.2288 244.778 32.9249L246.342 32.023C246.899 31.659 247.363 31.1689 247.697 30.5924C248.03 30.0158 248.223 29.3689 248.26 28.7041V14.4362C248.224 13.7703 248.031 13.1222 247.698 12.5445C247.365 11.9669 246.9 11.4758 246.342 11.1112Z" fill="white"/>
<path d="M240.942 14.2017L228.586 7.09482C227.528 6.49356 226.668 6.98058 226.668 8.20114V22.469C226.704 23.1349 226.897 23.783 227.23 24.3607C227.563 24.9383 228.028 25.4294 228.586 25.794L240.942 32.9249C242 33.5261 242.86 33.0391 242.86 31.8186V17.5507C242.827 16.8808 242.636 16.2283 242.303 15.6464C241.969 15.0644 241.503 14.5694 240.942 14.2017Z" fill="url(#paint11_linear_1_124)"/>
<path opacity="0.7" d="M240.942 14.2017L228.586 7.09482C227.528 6.49356 226.668 6.98058 226.668 8.20114V22.469C226.704 23.1349 226.897 23.783 227.23 24.3607C227.563 24.9383 228.028 25.4294 228.586 25.794L240.942 32.9249C242 33.5261 242.86 33.0391 242.86 31.8186V17.5507C242.827 16.8808 242.636 16.2283 242.303 15.6464C241.969 15.0644 241.503 14.5694 240.942 14.2017Z" fill="white"/>
<path d="M248.26 28.7041C248.223 29.3689 248.03 30.0158 247.697 30.5924C247.363 31.1689 246.899 31.659 246.342 32.023L244.778 32.9249C244.237 33.1968 243.644 33.3514 243.039 33.3783C242.434 33.4052 241.83 33.304 241.267 33.0812C242.175 33.4239 242.86 32.9129 242.86 31.8186V17.5507C242.836 16.8843 242.644 16.2348 242.301 15.6628L247.712 12.5422C248.06 13.1148 248.254 13.7669 248.278 14.4362L248.26 28.7041Z" fill="url(#paint12_linear_1_124)"/>
<path opacity="0.55" d="M248.26 28.7041C248.223 29.3689 248.03 30.0158 247.697 30.5924C247.363 31.1689 246.899 31.659 246.342 32.023L244.778 32.9249C244.237 33.1968 243.644 33.3514 243.039 33.3783C242.434 33.4052 241.83 33.304 241.267 33.0812C242.175 33.4239 242.86 32.9129 242.86 31.8186V17.5507C242.836 16.8843 242.644 16.2348 242.301 15.6628L247.712 12.5422C248.06 13.1148 248.254 13.7669 248.278 14.4362L248.26 28.7041Z" fill="white"/>
<path d="M237.461 24.0203C238.345 23.0282 238.76 21.4168 238.7 19.613C239.111 19.445 239.464 19.1608 239.716 18.7953C239.314 18.7933 238.917 18.7095 238.549 18.5488C238.775 18.4834 238.977 18.3564 239.134 18.1822C239.292 18.0081 239.397 17.7936 239.439 17.5628C239.01 17.6468 238.567 17.6178 238.152 17.4786C237.827 16.7797 237.313 16.186 236.667 15.765C235.357 15.0074 234.395 16.0837 234.689 17.9476C232.825 16.6267 231.367 14.8106 230.48 12.7046C229.945 13.6125 230.204 15.3561 231.082 16.6789C230.726 16.4477 230.414 16.1544 230.162 15.8131C230.18 16.4924 230.334 17.1613 230.614 17.7806C230.894 18.4 231.294 18.9575 231.791 19.4206C231.453 19.3308 231.14 19.1641 230.877 18.9336C231.103 20.132 231.781 21.1977 232.771 21.9099C231.917 22.3127 230.841 22.0902 229.765 21.3086C230.576 22.5224 231.638 23.5477 232.879 24.3149C234.888 25.4753 236.433 25.1627 237.413 24.0263" fill="white"/>
<path d="M246.342 43.4589L233.986 36.328C233.392 36.024 232.735 35.8655 232.068 35.8655C231.401 35.8655 230.743 36.024 230.15 36.328L228.586 37.2239C228.029 37.5891 227.564 38.0804 227.231 38.6579C226.898 39.2354 226.705 39.8831 226.668 40.5488V54.8167C226.702 55.4822 226.894 56.1302 227.228 56.7072C227.561 57.2842 228.027 57.7738 228.586 58.1356L240.942 65.2725C241.536 65.5765 242.193 65.735 242.86 65.735C243.527 65.735 244.185 65.5765 244.778 65.2725L246.342 64.3707C246.9 64.0061 247.365 63.515 247.698 62.9374C248.031 62.3597 248.223 61.7116 248.26 61.0457V46.7839C248.223 46.1179 248.031 45.4699 247.698 44.8922C247.365 44.3145 246.9 43.8235 246.342 43.4589Z" fill="url(#paint13_linear_1_124)"/>
<path opacity="0.8" d="M246.342 43.4589L233.986 36.328C233.392 36.024 232.735 35.8655 232.068 35.8655C231.401 35.8655 230.743 36.024 230.15 36.328L228.586 37.2239C228.029 37.5891 227.564 38.0804 227.231 38.6579C226.898 39.2354 226.705 39.8831 226.668 40.5488V54.8167C226.702 55.4822 226.894 56.1302 227.228 56.7072C227.561 57.2842 228.027 57.7738 228.586 58.1356L240.942 65.2725C241.536 65.5765 242.193 65.735 242.86 65.735C243.527 65.735 244.185 65.5765 244.778 65.2725L246.342 64.3707C246.9 64.0061 247.365 63.515 247.698 62.9374C248.031 62.3597 248.223 61.7116 248.26 61.0457V46.7839C248.223 46.1179 248.031 45.4699 247.698 44.8922C247.365 44.3145 246.9 43.8235 246.342 43.4589Z" fill="white"/>
<path d="M226.668 40.5488C226.668 39.3463 227.528 38.8292 228.586 39.4425L240.942 46.5734C241.501 46.938 241.965 47.4291 242.299 48.0067C242.632 48.5844 242.824 49.2325 242.86 49.8984V64.1663C242.86 65.3688 242 65.8859 240.942 65.2726L228.586 58.1356C228.027 57.7738 227.561 57.2842 227.228 56.7072C226.894 56.1302 226.702 55.4823 226.668 54.8167V40.5488Z" fill="url(#paint14_linear_1_124)"/>
<path opacity="0.7" d="M226.668 40.5488C226.668 39.3463 227.528 38.8292 228.586 39.4425L240.942 46.5734C241.501 46.938 241.965 47.4291 242.299 48.0067C242.632 48.5844 242.824 49.2325 242.86 49.8984V64.1663C242.86 65.3688 242 65.8859 240.942 65.2726L228.586 58.1356C228.027 57.7738 227.561 57.2842 227.228 56.7072C226.894 56.1302 226.702 55.4823 226.668 54.8167V40.5488Z" fill="white"/>
<path d="M248.26 61.0458C248.224 61.7117 248.031 62.3597 247.698 62.9374C247.365 63.5151 246.9 64.0061 246.342 64.3707L244.778 65.2726C244.237 65.5446 243.644 65.6991 243.039 65.726C242.434 65.753 241.83 65.6517 241.267 65.4289C242.175 65.7656 242.86 65.2606 242.86 64.1663V49.8984C242.836 49.2301 242.644 48.5787 242.301 48.0045L247.712 44.89C248.06 45.4625 248.254 46.1146 248.278 46.7839L248.26 61.0458Z" fill="url(#paint15_linear_1_124)"/>
<path opacity="0.55" d="M248.26 61.0458C248.224 61.7117 248.031 62.3597 247.698 62.9374C247.365 63.5151 246.9 64.0061 246.342 64.3707L244.778 65.2726C244.237 65.5446 243.644 65.6991 243.039 65.726C242.434 65.753 241.83 65.6517 241.267 65.4289C242.175 65.7656 242.86 65.2606 242.86 64.1663V49.8984C242.836 49.2301 242.644 48.5787 242.301 48.0045L247.712 44.89C248.06 45.4625 248.254 46.1146 248.278 46.7839L248.26 61.0458Z" fill="white"/>
<path d="M233.475 58.1597L235.537 59.3622V52.4658L236.974 53.2955L237.124 51.0829L235.537 50.1629V48.8522C235.537 48.3051 235.615 48.1367 236.012 48.3652L237.124 49.0085V46.6035L235.699 45.7738C234.166 44.8899 233.475 45.395 233.475 47.1146V48.9544L232.398 48.3532V50.686L233.475 51.2873V58.1597Z" fill="white"/>
<path d="M246.342 75.8066L233.986 68.6697C233.391 68.3704 232.734 68.2145 232.068 68.2145C231.402 68.2145 230.745 68.3704 230.15 68.6697L228.586 69.5716C228.028 69.9362 227.563 70.4272 227.23 71.0049C226.897 71.5825 226.704 72.2306 226.668 72.8965V87.1644C226.702 87.8299 226.894 88.4779 227.228 89.0549C227.561 89.6319 228.027 90.1215 228.586 90.4833L240.942 97.6203C241.537 97.9195 242.194 98.0754 242.86 98.0754C243.526 98.0754 244.183 97.9195 244.778 97.6203L246.342 96.7184C246.9 96.3538 247.365 95.8628 247.698 95.2851C248.031 94.7074 248.223 94.0593 248.26 93.3934V79.1376C248.224 78.4706 248.032 77.8214 247.699 77.2426C247.366 76.6638 246.901 76.1718 246.342 75.8066Z" fill="url(#paint16_linear_1_124)"/>
<path opacity="0.8" d="M246.342 75.8066L233.986 68.6697C233.391 68.3704 232.734 68.2145 232.068 68.2145C231.402 68.2145 230.745 68.3704 230.15 68.6697L228.586 69.5716C228.028 69.9362 227.563 70.4272 227.23 71.0049C226.897 71.5825 226.704 72.2306 226.668 72.8965V87.1644C226.702 87.8299 226.894 88.4779 227.228 89.0549C227.561 89.6319 228.027 90.1215 228.586 90.4833L240.942 97.6203C241.537 97.9195 242.194 98.0754 242.86 98.0754C243.526 98.0754 244.183 97.9195 244.778 97.6203L246.342 96.7184C246.9 96.3538 247.365 95.8628 247.698 95.2851C248.031 94.7074 248.223 94.0593 248.26 93.3934V79.1376C248.224 78.4706 248.032 77.8214 247.699 77.2426C247.366 76.6638 246.901 76.1718 246.342 75.8066Z" fill="white"/>
<path d="M226.668 72.8965C226.668 71.694 227.528 71.1769 228.586 71.7902L240.942 78.9211C241.501 79.2857 241.965 79.7768 242.299 80.3544C242.632 80.9321 242.824 81.5802 242.86 82.2461V96.5139C242.86 97.7165 242 98.2275 240.942 97.6203L228.586 90.4833C228.027 90.1215 227.561 89.6319 227.228 89.0549C226.894 88.4779 226.702 87.8299 226.668 87.1644V72.8965Z" fill="url(#paint17_linear_1_124)"/>
<path opacity="0.7" d="M226.668 72.8965C226.668 71.694 227.528 71.1769 228.586 71.7902L240.942 78.9211C241.501 79.2857 241.965 79.7768 242.299 80.3544C242.632 80.9321 242.824 81.5802 242.86 82.2461V96.5139C242.86 97.7165 242 98.2275 240.942 97.6203L228.586 90.4833C228.027 90.1215 227.561 89.6319 227.228 89.0549C226.894 88.4779 226.702 87.8299 226.668 87.1644V72.8965Z" fill="white"/>
<path d="M248.26 93.3934C248.224 94.0593 248.031 94.7074 247.698 95.2851C247.365 95.8628 246.9 96.3538 246.342 96.7184L244.778 97.6203C244.237 97.8927 243.644 98.047 243.039 98.073C242.433 98.0989 241.829 97.9958 241.267 97.7706C242.175 98.1133 242.86 97.6022 242.86 96.5139V82.2461C242.836 81.5778 242.644 80.9264 242.301 80.3521L247.712 77.2376C248.059 77.8084 248.253 78.4583 248.278 79.1256L248.26 93.3934Z" fill="url(#paint18_linear_1_124)"/>
<path opacity="0.55" d="M248.26 93.3934C248.224 94.0593 248.031 94.7074 247.698 95.2851C247.365 95.8628 246.9 96.3538 246.342 96.7184L244.778 97.6203C244.237 97.8927 243.644 98.047 243.039 98.073C242.433 98.0989 241.829 97.9958 241.267 97.7706C242.175 98.1133 242.86 97.6022 242.86 96.5139V82.2461C242.836 81.5778 242.644 80.9264 242.301 80.3521L247.712 77.2376C248.059 77.8084 248.253 78.4583 248.278 79.1256L248.26 93.3934Z" fill="white"/>
<path d="M234.737 79.5284C236.006 80.2559 236.156 80.3521 236.655 80.6708C236.978 80.8721 237.273 81.1147 237.533 81.3923C237.751 81.6268 237.933 81.8922 238.074 82.1799C238.233 82.4738 238.352 82.7871 238.429 83.1119C238.532 83.5272 238.588 83.9527 238.597 84.3806C238.597 85.054 238.597 85.2584 238.597 86.9419C238.597 88.6254 238.597 88.8299 238.597 89.4792C238.599 89.8466 238.542 90.2119 238.429 90.5615C238.369 90.7675 238.245 90.9488 238.074 91.0786C237.922 91.2022 237.728 91.2605 237.533 91.2409C237.222 91.2079 236.923 91.1074 236.655 90.9463C236.156 90.6877 236.006 90.6096 234.737 89.8821C233.469 89.1545 233.324 89.0583 232.825 88.7397C232.499 88.5403 232.204 88.2953 231.947 88.0121C231.729 87.7763 231.545 87.5112 231.4 87.2245C231.246 86.9309 231.127 86.6201 231.045 86.2986C230.949 85.8821 230.895 85.4571 230.883 85.0299C230.883 84.3505 230.883 84.1461 230.883 82.4625C230.883 80.779 230.883 80.5806 230.883 79.9252C230.885 79.5605 230.939 79.1979 231.045 78.849C231.108 78.6427 231.232 78.4603 231.4 78.3259C231.555 78.2047 231.752 78.1486 231.947 78.1696C232.258 78.1999 232.557 78.2985 232.825 78.4582C233.324 78.7167 233.475 78.7949 234.737 79.5284ZM234.737 78.392C233.457 77.6465 233.294 77.5623 232.789 77.2977C232.435 77.0942 232.041 76.9691 231.635 76.931C231.336 76.9041 231.038 76.9898 230.799 77.1715C230.538 77.3772 230.347 77.6586 230.252 77.9772C230.107 78.432 230.034 78.9067 230.035 79.3841C230.035 80.0455 230.005 80.2559 230.005 81.9695C230.005 83.6831 230.005 83.8995 230.035 84.591C230.046 85.1505 230.118 85.7071 230.252 86.2505C230.373 86.7485 230.557 87.2293 230.799 87.6815C231.025 88.1164 231.306 88.5206 231.635 88.884C231.974 89.2537 232.363 89.5753 232.789 89.84C233.294 90.1647 233.457 90.2609 234.737 91.0064C236.018 91.752 236.186 91.8362 236.691 92.0947C237.044 92.2985 237.435 92.4256 237.84 92.4675C238.141 92.4942 238.442 92.4062 238.681 92.221C238.944 92.0164 239.135 91.7345 239.229 91.4153C239.371 90.9618 239.444 90.4895 239.445 90.0143C239.445 89.353 239.475 89.1425 239.475 87.4229C239.475 85.7033 239.475 85.4929 239.445 84.8074C239.432 84.2482 239.359 83.6919 239.229 83.148C239.107 82.648 238.923 82.1652 238.681 81.711C238.223 80.8235 237.536 80.0742 236.691 79.5404C236.186 79.2218 236.024 79.1195 234.737 78.38" fill="white"/>
<path d="M234.737 81.4585C233.396 80.6828 232.332 81.5066 232.332 83.2983C232.332 85.0901 233.42 87.1704 234.737 87.946C236.054 88.7216 237.142 87.8979 237.142 86.1062C237.142 84.3144 236.054 82.2341 234.737 81.4585ZM234.737 86.8096C234.259 86.4656 233.868 86.0147 233.594 85.4928C233.321 84.9709 233.173 84.3924 233.162 83.8034C233.162 82.6429 233.865 82.1078 234.737 82.6008C235.218 82.9433 235.611 83.3937 235.886 83.9158C236.16 84.4379 236.309 85.0172 236.319 85.6071C236.319 86.7736 235.609 87.3027 234.737 86.8096Z" fill="white"/>
<path d="M236.793 82.5888C236.796 82.8024 236.849 83.0124 236.948 83.2015C237.048 83.3907 237.19 83.5536 237.365 83.6771C237.677 83.8574 237.93 83.6771 237.93 83.2442C237.927 83.0322 237.874 82.8239 237.776 82.636C237.678 82.448 237.537 82.2857 237.365 82.1619C237.046 81.9815 236.793 82.1619 236.793 82.5888Z" fill="white"/>
<path opacity="0.1" d="M164.108 139.486L139.047 125.02C138.583 124.78 138.067 124.655 137.544 124.655C137.021 124.655 136.506 124.78 136.041 125.02L54.8711 171.876C54.0413 172.357 54.0413 173.126 54.8711 173.607L79.9315 188.074C80.3971 188.311 80.9122 188.434 81.4347 188.434C81.9571 188.434 82.4722 188.311 82.9378 188.074L91.638 183.071C92.125 186.757 94.8067 190.37 99.6889 193.19C110.512 199.449 128.134 199.449 138.981 193.19C149.828 186.931 149.834 176.764 138.981 170.499C134.099 167.679 127.852 166.134 121.46 165.851L164.15 141.199C164.937 140.737 164.937 139.961 164.108 139.486Z" fill="black"/>
<path d="M117.276 141.019C116.973 141.018 116.677 140.937 116.416 140.785L97.8972 130.094C96.9021 129.514 96.0757 128.684 95.4999 127.687C94.9241 126.689 94.6188 125.558 94.6143 124.406V103.02C94.6143 102.564 94.7955 102.126 95.118 101.804C95.4405 101.481 95.8779 101.3 96.3339 101.3C96.79 101.3 97.2274 101.481 97.5499 101.804C97.8723 102.126 98.0535 102.564 98.0535 103.02V124.406C98.054 124.956 98.1987 125.495 98.473 125.971C98.7473 126.447 99.1417 126.842 99.6168 127.118L118.136 137.808C118.464 137.997 118.721 138.289 118.867 138.64C119.012 138.99 119.038 139.378 118.94 139.744C118.842 140.111 118.626 140.434 118.325 140.665C118.024 140.895 117.655 141.02 117.276 141.019Z" fill="url(#paint19_linear_1_124)"/>
<path d="M79.4687 162.364C79.1664 162.363 78.8698 162.282 78.6089 162.129L60.0901 151.439C59.095 150.859 58.2686 150.029 57.6928 149.031C57.117 148.034 56.8118 146.903 56.8073 145.751V124.364C56.8073 123.908 56.9884 123.471 57.3109 123.148C57.6334 122.826 58.0708 122.645 58.5268 122.645C58.9829 122.645 59.4203 122.826 59.7428 123.148C60.0653 123.471 60.2464 123.908 60.2464 124.364V145.751C60.247 146.3 60.3916 146.84 60.6659 147.316C60.9403 147.791 61.3347 148.187 61.8097 148.463L80.3285 159.153C80.6573 159.342 80.9144 159.634 81.0599 159.984C81.2054 160.334 81.2311 160.723 81.1331 161.089C81.035 161.455 80.8186 161.779 80.5176 162.009C80.2166 162.24 79.8478 162.364 79.4687 162.364Z" fill="url(#paint20_linear_1_124)"/>
<path d="M153.784 119.512C153.484 119.51 153.189 119.429 152.93 119.278L134.405 108.599C133.411 108.018 132.586 107.188 132.012 106.191C131.437 105.193 131.133 104.063 131.129 102.911V81.5426C131.155 81.1049 131.347 80.6936 131.666 80.3929C131.985 80.0922 132.407 79.9247 132.845 79.9247C133.284 79.9247 133.706 80.0922 134.025 80.3929C134.344 80.6936 134.536 81.1049 134.562 81.5426V102.929C134.572 103.471 134.722 104.001 134.997 104.467C135.271 104.934 135.662 105.322 136.131 105.593L154.65 116.283C154.979 116.472 155.236 116.764 155.381 117.114C155.527 117.465 155.552 117.853 155.454 118.219C155.356 118.586 155.14 118.909 154.839 119.14C154.538 119.37 154.169 119.495 153.79 119.494L153.784 119.512Z" fill="url(#paint21_linear_1_124)"/>
<path d="M82.6733 160.229V184.706C82.6551 184.881 82.5894 185.047 82.4834 185.187C82.3774 185.327 82.2352 185.435 82.0721 185.5C81.6444 185.717 81.1717 185.83 80.6922 185.83C80.2128 185.83 79.74 185.717 79.3123 185.5C79.1492 185.435 79.007 185.327 78.901 185.187C78.795 185.047 78.7293 184.881 78.7111 184.706V160.229H82.6733Z" fill="url(#paint22_linear_1_124)"/>
<path d="M66.3373 150.928V175.399C66.3181 175.574 66.2522 175.741 66.1464 175.881C66.0406 176.022 65.8988 176.132 65.736 176.199C65.3083 176.415 64.8356 176.528 64.3561 176.528C63.8767 176.528 63.404 176.415 62.9762 176.199C62.8183 176.129 62.682 176.017 62.5816 175.877C62.4812 175.736 62.4202 175.571 62.405 175.399V150.928H66.3373Z" fill="url(#paint23_linear_1_124)"/>
<path d="M156.929 117.36V141.831C156.912 142.003 156.851 142.167 156.751 142.307C156.65 142.448 156.515 142.559 156.357 142.631C155.929 142.847 155.455 142.96 154.975 142.96C154.494 142.96 154.02 142.847 153.592 142.631C153.429 142.564 153.287 142.454 153.181 142.313C153.076 142.172 153.01 142.006 152.99 141.831V117.36H156.929Z" fill="url(#paint24_linear_1_124)"/>
<path d="M140.592 108.052V132.529C140.577 132.701 140.516 132.865 140.415 133.004C140.315 133.144 140.179 133.254 140.021 133.323C139.592 133.54 139.119 133.653 138.638 133.653C138.158 133.653 137.684 133.54 137.255 133.323C137.092 133.258 136.95 133.15 136.844 133.01C136.738 132.87 136.672 132.704 136.654 132.529V108.052H140.592Z" fill="url(#paint25_linear_1_124)"/>
<g opacity="0.65">
<path d="M117.276 141.019C116.973 141.018 116.677 140.937 116.416 140.785L97.8971 130.094C96.9019 129.514 96.0756 128.684 95.4998 127.686C94.924 126.689 94.6187 125.558 94.6142 124.406V103.019C94.6142 102.563 94.7954 102.126 95.1179 101.804C95.4403 101.481 95.8777 101.3 96.3338 101.3C96.7899 101.3 97.2272 101.481 97.5497 101.804C97.8722 102.126 98.0534 102.563 98.0534 103.019V124.406C98.0539 124.956 98.1986 125.495 98.4729 125.971C98.7472 126.447 99.1416 126.842 99.6167 127.118L118.135 137.808C118.464 137.997 118.721 138.289 118.867 138.639C119.012 138.99 119.038 139.378 118.94 139.744C118.842 140.11 118.626 140.434 118.325 140.665C118.024 140.895 117.655 141.02 117.276 141.019Z" fill="black"/>
<path d="M79.4685 162.364C79.1663 162.363 78.8697 162.282 78.6088 162.129L60.09 151.439C59.0949 150.859 58.2685 150.029 57.6927 149.031C57.1169 148.034 56.8116 146.903 56.8071 145.751V124.364C56.8071 123.908 56.9883 123.471 57.3108 123.148C57.6333 122.826 58.0707 122.645 58.5267 122.645C58.9828 122.645 59.4202 122.826 59.7427 123.148C60.0652 123.471 60.2463 123.908 60.2463 124.364V145.751C60.2468 146.3 60.3915 146.84 60.6658 147.316C60.9401 147.791 61.3345 148.187 61.8096 148.463L80.3284 159.153C80.6571 159.342 80.9143 159.634 81.0598 159.984C81.2053 160.334 81.231 160.723 81.1329 161.089C81.0349 161.455 80.8185 161.779 80.5175 162.009C80.2165 162.24 79.8477 162.364 79.4685 162.364Z" fill="black"/>
<path d="M153.784 119.512C153.484 119.51 153.189 119.429 152.93 119.278L134.405 108.599C133.411 108.018 132.586 107.188 132.011 106.19C131.437 105.193 131.132 104.063 131.128 102.911V81.5426C131.154 81.1049 131.347 80.6936 131.666 80.3929C131.985 80.0921 132.407 79.9246 132.845 79.9246C133.284 79.9246 133.705 80.0921 134.025 80.3929C134.344 80.6936 134.536 81.1049 134.562 81.5426V102.929C134.572 103.471 134.721 104.001 134.996 104.467C135.271 104.934 135.662 105.322 136.131 105.593L154.65 116.283C154.978 116.472 155.236 116.764 155.381 117.114C155.527 117.465 155.552 117.853 155.454 118.219C155.356 118.585 155.14 118.909 154.839 119.14C154.538 119.37 154.169 119.495 153.79 119.494L153.784 119.512Z" fill="black"/>
<path d="M82.6732 160.229V184.706C82.6549 184.881 82.5893 185.047 82.4833 185.187C82.3773 185.327 82.2351 185.435 82.072 185.5C81.6442 185.717 81.1715 185.83 80.6921 185.83C80.2126 185.83 79.7399 185.717 79.3122 185.5C79.1491 185.435 79.0069 185.327 78.9009 185.187C78.7949 185.047 78.7292 184.881 78.7109 184.706V160.229H82.6732Z" fill="black"/>
<path d="M66.3371 150.928V175.399C66.318 175.574 66.252 175.741 66.1462 175.881C66.0404 176.022 65.8987 176.132 65.7359 176.199C65.3081 176.415 64.8354 176.528 64.356 176.528C63.8765 176.528 63.4038 176.415 62.9761 176.199C62.8182 176.128 62.6819 176.017 62.5815 175.877C62.481 175.736 62.4201 175.571 62.4049 175.399V150.928H66.3371Z" fill="black"/>
<path d="M156.929 117.36V141.831C156.912 142.003 156.851 142.167 156.75 142.307C156.65 142.448 156.515 142.559 156.357 142.63C155.929 142.847 155.455 142.96 154.974 142.96C154.494 142.96 154.02 142.847 153.592 142.63C153.429 142.563 153.287 142.454 153.181 142.313C153.075 142.172 153.009 142.006 152.99 141.831V117.36H156.929Z" fill="black"/>
<path d="M140.592 108.052V132.529C140.577 132.701 140.516 132.865 140.415 133.004C140.315 133.144 140.179 133.254 140.021 133.323C139.592 133.54 139.119 133.652 138.638 133.652C138.158 133.652 137.684 133.54 137.255 133.323C137.092 133.258 136.95 133.15 136.844 133.01C136.738 132.87 136.672 132.704 136.654 132.529V108.052H140.592Z" fill="black"/>
</g>
<path d="M52.9771 129.216L52.6344 129.018C52.3457 128.831 52.1053 128.578 51.9329 128.28C51.7605 127.982 51.6609 127.648 51.6423 127.304V124.232C51.6614 123.888 51.7611 123.553 51.9334 123.254C52.1058 122.955 52.3459 122.701 52.6344 122.512L134.267 75.3677C134.575 75.2137 134.915 75.1335 135.259 75.1335C135.604 75.1335 135.943 75.2137 136.251 75.3677L136.594 75.5661C136.883 75.755 137.123 76.009 137.295 76.3077C137.467 76.6064 137.567 76.9414 137.586 77.2857V80.3702C137.567 80.7145 137.467 81.0495 137.295 81.3482C137.123 81.6469 136.883 81.9009 136.594 82.0898L54.9613 129.216C54.6542 129.374 54.3142 129.456 53.9692 129.456C53.6242 129.456 53.2842 129.374 52.9771 129.216Z" fill="url(#paint26_linear_1_124)"/>
<path opacity="0.5" d="M136.594 76.7326L54.9614 123.841C54.6729 124.03 54.4328 124.284 54.2605 124.583C54.0881 124.881 53.9884 125.216 53.9694 125.561V128.645C53.9694 129.277 54.4143 129.535 54.9614 129.246L136.594 82.1199C136.883 81.931 137.123 81.677 137.295 81.3783C137.468 81.0796 137.567 80.7446 137.586 80.4003V77.3158C137.586 76.6544 137.141 76.3959 136.594 76.7326Z" fill="black"/>
<path opacity="0.4" d="M136.594 75.5661L136.251 75.3677C135.943 75.2137 135.604 75.1335 135.259 75.1335C134.915 75.1335 134.575 75.2137 134.267 75.3677L52.6345 122.5C52.348 122.684 52.1139 122.939 51.9551 123.24L54.2759 124.581C54.449 124.282 54.6901 124.029 54.9794 123.841L136.594 76.7326C137.141 76.4139 137.586 76.6724 137.586 77.3038C137.57 76.9563 137.472 76.6177 137.299 76.3157C137.127 76.0136 136.885 75.7567 136.594 75.5661Z" fill="black"/>
<path opacity="0.6" d="M53.9692 125.567C53.9827 125.221 54.0819 124.884 54.2578 124.587L51.955 123.24C51.8795 123.368 51.8171 123.503 51.7686 123.643C51.6993 123.836 51.6627 124.039 51.6604 124.244V127.328C51.6818 127.672 51.7825 128.006 51.9546 128.305C52.1267 128.603 52.3656 128.857 52.6525 129.048L52.7848 129.126L52.9952 129.24L53.1515 129.319H53.1936L53.3319 129.367H53.4161L53.5544 129.397H53.6566H53.7949H54.1436H54.3059H54.342C54.4813 129.376 54.6183 129.342 54.7509 129.295H54.6066C54.5547 129.301 54.5021 129.301 54.4502 129.295H54.4021C54.3683 129.288 54.3358 129.276 54.3059 129.258H54.2699L54.1857 129.192C54.1615 129.158 54.1394 129.121 54.1195 129.084V129.054C54.0991 129.001 54.083 128.947 54.0714 128.892C54.0647 128.82 54.0647 128.747 54.0714 128.675L53.9692 125.567Z" fill="black"/>
<path d="M52.9772 138.662L52.6345 138.464C52.346 138.275 52.1059 138.021 51.9336 137.722C51.7612 137.424 51.6615 137.088 51.6425 136.744V133.66C51.661 133.316 51.7606 132.982 51.933 132.684C52.1054 132.386 52.3458 132.133 52.6345 131.946L134.267 84.7955C134.574 84.6382 134.914 84.5562 135.259 84.5562C135.604 84.5562 135.944 84.6382 136.252 84.7955L136.594 84.9939C136.883 85.1827 137.123 85.4367 137.295 85.7354C137.468 86.0341 137.567 86.3692 137.586 86.7135V89.7919C137.569 90.1366 137.47 90.4721 137.297 90.771C137.125 91.07 136.884 91.3237 136.594 91.5115L54.9614 138.662C54.6543 138.819 54.3143 138.901 53.9693 138.901C53.6243 138.901 53.2843 138.819 52.9772 138.662Z" fill="url(#paint27_linear_1_124)"/>
<path opacity="0.5" d="M136.594 86.1422L54.9614 133.251C54.6729 133.44 54.4328 133.694 54.2605 133.992C54.0881 134.291 53.9884 134.626 53.9694 134.97V138.061C53.9694 138.692 54.4143 138.951 54.9614 138.662L136.594 91.5355C136.883 91.3467 137.123 91.0927 137.295 90.794C137.468 90.4953 137.567 90.1602 137.586 89.8159V86.7134C137.586 86.0821 137.141 85.8236 136.594 86.1422Z" fill="black"/>
<path opacity="0.4" d="M136.594 84.9938L136.251 84.7954C135.943 84.6414 135.604 84.5612 135.259 84.5612C134.915 84.5612 134.575 84.6414 134.267 84.7954L52.6345 131.928C52.3503 132.107 52.1164 132.355 51.9551 132.65L54.2759 133.99C54.4439 133.694 54.6786 133.441 54.9614 133.251L136.594 86.1242C137.141 85.8055 137.586 86.0641 137.586 86.6954C137.564 86.3542 137.463 86.0228 137.291 85.7274C137.119 85.4321 136.88 85.1809 136.594 84.9938Z" fill="black"/>
<path opacity="0.6" d="M53.9692 134.988C53.9827 134.643 54.0819 134.306 54.2578 134.008L51.955 132.65C51.8784 132.777 51.8159 132.912 51.7686 133.052C51.6986 133.245 51.662 133.449 51.6604 133.654V136.732C51.6739 137.086 51.7796 137.43 51.967 137.73C52.1287 138.026 52.365 138.275 52.6525 138.452L52.7848 138.53L52.9952 138.65L53.1515 138.722H53.1936L53.3319 138.77L53.4161 138.8H53.5544C53.5884 138.803 53.6226 138.803 53.6566 138.8H53.7949H54.1436H54.3059H54.342C54.4815 138.778 54.6185 138.742 54.7509 138.692C54.7042 138.708 54.6557 138.718 54.6066 138.722C54.5546 138.729 54.5022 138.729 54.4502 138.722H54.4021L54.3059 138.686L54.2699 138.656C54.238 138.639 54.2095 138.617 54.1857 138.59V138.56C54.1588 138.527 54.1366 138.491 54.1195 138.452C54.0991 138.399 54.083 138.345 54.0714 138.289C54.0649 138.217 54.0649 138.145 54.0714 138.073L53.9692 134.988Z" fill="black"/>
<path d="M52.9772 148.066L52.6345 147.873C52.346 147.685 52.1059 147.431 51.9336 147.132C51.7612 146.833 51.6615 146.498 51.6425 146.154V143.069C51.6615 142.725 51.7612 142.39 51.9336 142.091C52.1059 141.793 52.346 141.539 52.6345 141.35L134.267 94.2232C134.574 94.0659 134.914 93.9839 135.259 93.9839C135.604 93.9839 135.944 94.0659 136.252 94.2232L136.594 94.4156C136.883 94.6044 137.123 94.8584 137.295 95.1571C137.468 95.4558 137.567 95.7909 137.586 96.1352V99.2196C137.567 99.5639 137.468 99.899 137.295 100.198C137.123 100.496 136.883 100.75 136.594 100.939L54.9614 148.066C54.6543 148.223 54.3143 148.305 53.9693 148.305C53.6243 148.305 53.2843 148.223 52.9772 148.066Z" fill="url(#paint28_linear_1_124)"/>
<path opacity="0.5" d="M136.594 95.564L54.9614 142.691C54.6729 142.879 54.4328 143.133 54.2605 143.432C54.0881 143.731 53.9884 144.066 53.9694 144.41V147.495C53.9694 148.126 54.4143 148.385 54.9614 148.066L136.594 100.939C136.883 100.75 137.123 100.496 137.295 100.198C137.468 99.8989 137.567 99.5639 137.586 99.2196V96.1352C137.586 95.5038 137.141 95.2453 136.594 95.564Z" fill="black"/>
<path opacity="0.4" d="M136.594 94.4155L136.251 94.2171C135.943 94.0631 135.604 93.983 135.259 93.983C134.915 93.983 134.575 94.0631 134.267 94.2171L52.6345 141.35C52.348 141.534 52.1139 141.788 51.9551 142.089L54.2759 143.43C54.4439 143.134 54.6786 142.881 54.9614 142.691L136.594 95.564C137.141 95.2453 137.586 95.5038 137.586 96.1652C137.572 95.8157 137.474 95.4747 137.302 95.1704C137.129 94.8661 136.887 94.6074 136.594 94.4155Z" fill="black"/>
<path opacity="0.6" d="M53.9692 144.41C53.9837 144.065 54.0828 143.728 54.2578 143.43L51.955 142.089C51.8795 142.217 51.8171 142.352 51.7686 142.492C51.6986 142.685 51.662 142.888 51.6604 143.093V146.178C51.6748 146.531 51.7804 146.875 51.967 147.176C52.1307 147.469 52.3667 147.715 52.6525 147.891L52.7848 147.97L52.9952 148.09C53.0443 148.12 53.0968 148.144 53.1515 148.162H53.1936L53.3319 148.204L53.4161 148.234L53.5544 148.264H53.6566H53.7949H54.1436H54.3059H54.342C54.4821 148.244 54.6193 148.208 54.7509 148.156C54.7042 148.172 54.6557 148.182 54.6066 148.186C54.5549 148.195 54.5019 148.195 54.4502 148.186H54.4021L54.3059 148.15H54.2699C54.2391 148.129 54.2109 148.105 54.1857 148.078V148.048C54.1602 148.016 54.1381 147.982 54.1195 147.946V147.916C54.1 147.861 54.0839 147.804 54.0714 147.747C54.0649 147.675 54.0649 147.603 54.0714 147.531L53.9692 144.41Z" fill="black"/>
<path d="M72.5844 163.181V163.572C72.602 163.917 72.7011 164.253 72.8736 164.551C73.046 164.85 73.2869 165.104 73.5764 165.292L76.252 166.837C76.5601 166.991 76.8997 167.071 77.2441 167.071C77.5885 167.071 77.9281 166.991 78.2362 166.837L159.863 119.705C160.153 119.517 160.394 119.263 160.567 118.964C160.739 118.665 160.838 118.33 160.855 117.985V117.618C160.838 117.274 160.739 116.939 160.566 116.641C160.394 116.343 160.153 116.091 159.863 115.905L157.175 114.329C156.867 114.175 156.528 114.095 156.183 114.095C155.839 114.095 155.499 114.175 155.191 114.329L73.6005 161.462C73.3065 161.647 73.0609 161.9 72.8842 162.199C72.7074 162.498 72.6046 162.835 72.5844 163.181Z" fill="url(#paint29_linear_1_124)"/>
<path opacity="0.4" d="M78.2362 164.15L159.863 117.017C159.983 116.977 160.088 116.901 160.162 116.798C160.237 116.696 160.276 116.572 160.276 116.446C160.276 116.319 160.237 116.196 160.162 116.093C160.088 115.991 159.983 115.914 159.863 115.874L157.175 114.329C156.867 114.175 156.528 114.095 156.183 114.095C155.839 114.095 155.499 114.175 155.191 114.329L73.6005 161.462C73.4802 161.501 73.3754 161.578 73.3012 161.681C73.2269 161.783 73.187 161.906 73.187 162.033C73.187 162.16 73.2269 162.283 73.3012 162.386C73.3754 162.488 73.4802 162.565 73.6005 162.604L76.2761 164.15C76.581 164.3 76.9163 164.378 77.2561 164.378C77.596 164.378 77.9313 164.3 78.2362 164.15Z" fill="black"/>
<path opacity="0.55" d="M159.965 115.935C160.41 116.253 160.374 116.722 159.869 117.017L78.2359 164.15C77.9281 164.31 77.5849 164.391 77.2379 164.384V167.072C77.5849 167.078 77.9281 166.998 78.2359 166.837L159.869 119.704C160.157 119.515 160.396 119.261 160.569 118.962C160.741 118.664 160.841 118.329 160.861 117.985V117.618C160.847 117.288 160.759 116.966 160.604 116.675C160.449 116.383 160.231 116.13 159.965 115.935Z" fill="black"/>
<path opacity="0.6" d="M76.2461 164.15L73.6005 162.604C73.1255 162.328 73.0654 161.901 73.4202 161.588C73.1812 161.782 72.9855 162.024 72.8457 162.299C72.7059 162.573 72.6251 162.874 72.6085 163.181V163.572C72.6369 164.099 72.8497 164.599 73.2097 164.985C73.3236 165.104 73.4531 165.207 73.5945 165.292L76.2641 166.837C76.5701 166.997 76.9111 167.077 77.2562 167.072V164.384C76.905 164.393 76.5574 164.312 76.2461 164.15Z" fill="black"/>
<path d="M64.4434 158.504V158.895C64.461 159.239 64.5601 159.575 64.7326 159.874C64.905 160.173 65.1459 160.426 65.4354 160.614L68.105 162.159C68.4131 162.313 68.7527 162.393 69.0971 162.393C69.4415 162.393 69.7811 162.313 70.0892 162.159L151.722 115.027C152.011 114.838 152.251 114.584 152.423 114.285C152.595 113.986 152.695 113.651 152.714 113.307V112.91C152.696 112.567 152.596 112.232 152.424 111.935C152.251 111.637 152.011 111.384 151.722 111.197L149.052 109.651C148.744 109.497 148.405 109.417 148.06 109.417C147.716 109.417 147.376 109.497 147.068 109.651L65.4354 156.76C65.1427 156.95 64.8998 157.208 64.7272 157.511C64.5546 157.815 64.4572 158.155 64.4434 158.504Z" fill="url(#paint30_linear_1_124)"/>
<path opacity="0.4" d="M70.0891 159.448L151.722 112.315C151.842 112.275 151.947 112.199 152.021 112.096C152.095 111.994 152.135 111.87 152.135 111.744C152.135 111.617 152.095 111.494 152.021 111.391C151.947 111.289 151.842 111.212 151.722 111.173L149.052 109.627C148.744 109.473 148.405 109.393 148.06 109.393C147.716 109.393 147.376 109.473 147.068 109.627L65.4354 156.76C65.3151 156.8 65.2103 156.876 65.1361 156.979C65.0618 157.081 65.0219 157.205 65.0219 157.331C65.0219 157.458 65.0618 157.581 65.1361 157.684C65.2103 157.786 65.3151 157.863 65.4354 157.902L68.105 159.448C68.413 159.602 68.7526 159.682 69.097 159.682C69.4414 159.682 69.7811 159.602 70.0891 159.448Z" fill="black"/>
<path opacity="0.55" d="M151.824 111.233C152.263 111.551 152.233 112.02 151.722 112.315L70.0889 159.448C69.783 159.607 69.4419 159.688 69.0969 159.682V162.37C69.4419 162.376 69.783 162.295 70.0889 162.135L151.722 115.003C152.011 114.814 152.251 114.56 152.423 114.261C152.596 113.963 152.695 113.627 152.714 113.283V112.886C152.695 112.562 152.606 112.246 152.452 111.961C152.299 111.675 152.084 111.427 151.824 111.233Z" fill="black"/>
<path opacity="0.6" d="M68.105 159.448L65.4354 157.902C64.9544 157.626 64.8943 157.199 65.2551 156.886C65.0155 157.08 64.8194 157.322 64.6796 157.597C64.5397 157.871 64.4592 158.172 64.4434 158.48V158.87C64.4708 159.398 64.6837 159.898 65.0446 160.283C65.1606 160.403 65.2921 160.506 65.4354 160.59L68.105 162.135C68.4104 162.296 68.7519 162.377 69.0971 162.37V159.706C68.7497 159.706 68.4082 159.617 68.105 159.448Z" fill="black"/>
<path d="M56.2963 153.778V154.169C56.3139 154.513 56.413 154.849 56.5855 155.148C56.7579 155.447 56.9988 155.7 57.2883 155.888L59.9579 157.433C60.266 157.587 60.6056 157.668 60.95 157.668C61.2944 157.668 61.634 157.587 61.9421 157.433L143.575 110.301C143.858 110.112 144.093 109.86 144.262 109.564C144.431 109.269 144.529 108.939 144.549 108.599V108.202C144.53 107.858 144.43 107.523 144.258 107.224C144.086 106.926 143.845 106.672 143.557 106.483L140.887 104.944C140.579 104.79 140.24 104.709 139.895 104.709C139.551 104.709 139.211 104.79 138.903 104.944L57.2883 152.058C56.9988 152.246 56.7579 152.5 56.5855 152.799C56.413 153.098 56.3139 153.433 56.2963 153.778Z" fill="url(#paint31_linear_1_124)"/>
<path opacity="0.4" d="M57.2883 153.201L59.9579 154.746C60.2659 154.9 60.6055 154.98 60.9499 154.98C61.2943 154.98 61.634 154.9 61.942 154.746L143.575 107.613C143.697 107.575 143.805 107.499 143.881 107.396C143.957 107.292 143.998 107.167 143.998 107.039C143.998 106.911 143.957 106.786 143.881 106.682C143.805 106.579 143.697 106.503 143.575 106.465L140.905 104.926C140.597 104.772 140.258 104.691 139.913 104.691C139.569 104.691 139.229 104.772 138.921 104.926L57.2883 152.058C57.168 152.098 57.0632 152.174 56.989 152.277C56.9147 152.379 56.8748 152.503 56.8748 152.629C56.8748 152.756 56.9147 152.879 56.989 152.982C57.0632 153.085 57.168 153.161 57.2883 153.201Z" fill="black"/>
<path opacity="0.55" d="M143.677 106.531C144.116 106.85 144.086 107.319 143.575 107.613L61.9418 154.746C61.6361 154.906 61.2949 154.987 60.9497 154.98V157.668C61.2949 157.675 61.6361 157.594 61.9418 157.433L143.575 110.301C143.858 110.112 144.093 109.86 144.262 109.565C144.431 109.27 144.529 108.939 144.549 108.599V108.202C144.535 107.877 144.45 107.558 144.299 107.269C144.148 106.981 143.936 106.728 143.677 106.531Z" fill="black"/>
<path opacity="0.6" d="M59.9579 154.746L57.2883 153.201C56.8073 152.924 56.7532 152.497 57.108 152.184C56.8684 152.378 56.6723 152.62 56.5325 152.895C56.3926 153.169 56.3121 153.47 56.2963 153.778V154.169C56.3256 154.694 56.5384 155.192 56.8975 155.576C57.0131 155.697 57.1446 155.802 57.2883 155.888L59.9579 157.433C60.2636 157.594 60.6048 157.675 60.95 157.668V154.98C60.6048 154.987 60.2636 154.906 59.9579 154.746Z" fill="black"/>
<path d="M63.824 150.2C63.7552 150.222 63.6951 150.264 63.6525 150.322C63.6098 150.38 63.5867 150.45 63.5867 150.522C63.5867 150.594 63.6098 150.664 63.6525 150.722C63.6951 150.78 63.7552 150.822 63.824 150.844C63.9964 150.934 64.1883 150.982 64.3831 150.982C64.5779 150.982 64.7698 150.934 64.9423 150.844C65.011 150.822 65.0711 150.78 65.1138 150.722C65.1565 150.664 65.1795 150.594 65.1795 150.522C65.1795 150.45 65.1565 150.38 65.1138 150.322C65.0711 150.264 65.011 150.222 64.9423 150.2C64.7689 150.113 64.5774 150.067 64.3831 150.067C64.1889 150.067 63.9973 150.113 63.824 150.2Z" fill="black"/>
<path d="M71.9892 154.938C71.9213 154.961 71.8622 155.005 71.8204 155.063C71.7786 155.121 71.7562 155.191 71.7562 155.263C71.7562 155.335 71.7786 155.404 71.8204 155.463C71.8622 155.521 71.9213 155.565 71.9892 155.588C72.1633 155.676 72.3559 155.723 72.5513 155.723C72.7468 155.723 72.9394 155.676 73.1135 155.588C73.1814 155.565 73.2404 155.521 73.2822 155.463C73.324 155.404 73.3465 155.335 73.3465 155.263C73.3465 155.191 73.324 155.121 73.2822 155.063C73.2404 155.005 73.1814 154.961 73.1135 154.938C72.9394 154.85 72.7468 154.803 72.5513 154.803C72.3559 154.803 72.1633 154.85 71.9892 154.938Z" fill="black"/>
<path d="M80.1603 159.706C80.0915 159.727 80.0314 159.77 79.9888 159.828C79.9461 159.886 79.923 159.956 79.923 160.028C79.923 160.1 79.9461 160.17 79.9888 160.228C80.0314 160.286 80.0915 160.328 80.1603 160.35C80.3327 160.44 80.5246 160.487 80.7194 160.487C80.9142 160.487 81.1061 160.44 81.2786 160.35C81.3473 160.328 81.4074 160.286 81.4501 160.228C81.4928 160.17 81.5158 160.1 81.5158 160.028C81.5158 159.956 81.4928 159.886 81.4501 159.828C81.4074 159.77 81.3473 159.727 81.2786 159.706C81.1053 159.619 80.9137 159.573 80.7194 159.573C80.5252 159.573 80.3336 159.619 80.1603 159.706Z" fill="black"/>
<path d="M138.079 107.349C138.011 107.372 137.952 107.415 137.911 107.474C137.869 107.532 137.846 107.602 137.846 107.673C137.846 107.745 137.869 107.815 137.911 107.873C137.952 107.931 138.011 107.975 138.079 107.998C138.252 108.089 138.444 108.136 138.639 108.136C138.833 108.136 139.025 108.089 139.198 107.998C139.266 107.975 139.325 107.931 139.366 107.873C139.408 107.815 139.431 107.745 139.431 107.673C139.431 107.602 139.408 107.532 139.366 107.474C139.325 107.415 139.266 107.372 139.198 107.349C139.024 107.263 138.832 107.218 138.639 107.218C138.445 107.218 138.253 107.263 138.079 107.349Z" fill="black"/>
<path d="M146.244 112.093C146.177 112.115 146.117 112.159 146.076 112.217C146.034 112.276 146.011 112.346 146.011 112.417C146.011 112.489 146.034 112.559 146.076 112.617C146.117 112.675 146.177 112.719 146.244 112.742C146.419 112.828 146.612 112.873 146.807 112.873C147.002 112.873 147.194 112.828 147.369 112.742C147.437 112.719 147.496 112.675 147.537 112.617C147.579 112.559 147.602 112.489 147.602 112.417C147.602 112.346 147.579 112.276 147.537 112.217C147.496 112.159 147.437 112.115 147.369 112.093C147.195 112.004 147.002 111.958 146.807 111.958C146.611 111.958 146.419 112.004 146.244 112.093Z" fill="black"/>
<path d="M154.416 116.83C154.348 116.853 154.289 116.897 154.247 116.955C154.205 117.014 154.183 117.083 154.183 117.155C154.183 117.227 154.205 117.297 154.247 117.355C154.289 117.413 154.348 117.457 154.416 117.48C154.588 117.57 154.78 117.618 154.975 117.618C155.17 117.618 155.361 117.57 155.534 117.48C155.602 117.457 155.661 117.413 155.703 117.355C155.744 117.297 155.767 117.227 155.767 117.155C155.767 117.083 155.744 117.014 155.703 116.955C155.661 116.897 155.602 116.853 155.534 116.83C155.36 116.745 155.169 116.7 154.975 116.7C154.781 116.7 154.59 116.745 154.416 116.83Z" fill="black"/>
<path d="M101.565 128.856C101.497 128.879 101.438 128.922 101.396 128.981C101.354 129.039 101.332 129.109 101.332 129.18C101.332 129.252 101.354 129.322 101.396 129.38C101.438 129.438 101.497 129.482 101.565 129.505C101.739 129.594 101.931 129.64 102.127 129.64C102.322 129.64 102.515 129.594 102.689 129.505C102.757 129.482 102.816 129.438 102.858 129.38C102.9 129.322 102.922 129.252 102.922 129.18C102.922 129.109 102.9 129.039 102.858 128.981C102.816 128.922 102.757 128.879 102.689 128.856C102.514 128.77 102.322 128.725 102.127 128.725C101.932 128.725 101.74 128.77 101.565 128.856Z" fill="black"/>
<path d="M109.736 133.6C109.668 133.623 109.609 133.666 109.567 133.724C109.525 133.783 109.503 133.853 109.503 133.924C109.503 133.996 109.525 134.066 109.567 134.124C109.609 134.182 109.668 134.226 109.736 134.249C109.91 134.335 110.101 134.379 110.295 134.379C110.489 134.379 110.68 134.335 110.854 134.249C110.922 134.226 110.981 134.182 111.023 134.124C111.065 134.066 111.087 133.996 111.087 133.924C111.087 133.853 111.065 133.783 111.023 133.724C110.981 133.666 110.922 133.623 110.854 133.6C110.681 133.512 110.489 133.466 110.295 133.466C110.101 133.466 109.909 133.512 109.736 133.6Z" fill="black"/>
<path d="M117.901 138.337C117.833 138.36 117.774 138.404 117.732 138.462C117.69 138.521 117.668 138.59 117.668 138.662C117.668 138.734 117.69 138.804 117.732 138.862C117.774 138.92 117.833 138.964 117.901 138.987C118.075 139.076 118.268 139.122 118.463 139.122C118.659 139.122 118.851 139.076 119.025 138.987C119.093 138.964 119.152 138.92 119.194 138.862C119.236 138.804 119.258 138.734 119.258 138.662C119.258 138.59 119.236 138.521 119.194 138.462C119.152 138.404 119.093 138.36 119.025 138.337C118.85 138.252 118.658 138.207 118.463 138.207C118.268 138.207 118.076 138.252 117.901 138.337Z" fill="black"/>
<path d="M58.5267 123.631C58.3401 123.751 58.1849 123.914 58.0741 124.107C57.9632 124.299 57.8999 124.515 57.8894 124.737C57.8894 125.14 58.172 125.338 58.5267 125.104C58.712 124.982 58.8662 124.819 58.9769 124.626C59.0875 124.434 59.1517 124.219 59.1641 123.998C59.1701 123.589 58.8755 123.426 58.5267 123.631Z" fill="black"/>
<path d="M58.5267 133.034C58.3405 133.155 58.1855 133.318 58.0747 133.511C57.9639 133.703 57.9004 133.919 57.8894 134.141C57.8894 134.55 58.172 134.712 58.5267 134.507C58.712 134.386 58.8662 134.222 58.9769 134.03C59.0875 133.838 59.1517 133.623 59.1641 133.401C59.1701 132.992 58.8755 132.83 58.5267 133.034Z" fill="black"/>
<path d="M58.5267 142.438C58.3405 142.559 58.1855 142.722 58.0747 142.914C57.9639 143.107 57.9004 143.323 57.8894 143.544C57.8894 143.953 58.172 144.116 58.5267 143.911C58.7123 143.79 58.8668 143.626 58.9775 143.434C59.0882 143.242 59.1521 143.026 59.1641 142.805C59.1701 142.402 58.8755 142.234 58.5267 142.438Z" fill="black"/>
<path d="M132.842 80.8031C132.657 80.9245 132.502 81.088 132.392 81.2802C132.281 81.4724 132.217 81.6879 132.205 81.9094C132.205 82.3123 132.494 82.4806 132.842 82.2762C133.029 82.1554 133.185 81.9923 133.297 81.8C133.408 81.6078 133.473 81.3919 133.486 81.1699C133.486 80.761 133.197 80.5987 132.842 80.8031Z" fill="black"/>
<path d="M132.842 90.2068C132.657 90.3285 132.503 90.4921 132.392 90.6842C132.282 90.8763 132.218 91.0917 132.205 91.3131C132.205 91.7219 132.494 91.8843 132.842 91.6798C133.031 91.5579 133.187 91.3929 133.299 91.1984C133.411 91.0039 133.475 90.7856 133.486 90.5615C133.486 90.1647 133.197 90.0023 132.842 90.2068Z" fill="black"/>
<path d="M132.842 99.6105C132.657 99.7322 132.503 99.8958 132.392 100.088C132.282 100.28 132.218 100.495 132.205 100.717C132.205 101.126 132.494 101.318 132.842 101.084C133.03 100.963 133.186 100.801 133.298 100.608C133.41 100.416 133.474 100.199 133.486 99.9772C133.486 99.5804 133.197 99.406 132.842 99.6105Z" fill="black"/>
<path d="M96.3339 102.304C96.1483 102.426 95.9939 102.589 95.8832 102.781C95.7725 102.973 95.7085 103.189 95.6966 103.41C95.6966 103.819 95.9792 104.012 96.3339 103.783C96.5202 103.662 96.6751 103.499 96.786 103.307C96.8968 103.115 96.9603 102.899 96.9713 102.677C96.9713 102.268 96.6887 102.106 96.3339 102.304Z" fill="black"/>
<path d="M96.3339 111.714C96.1476 111.834 95.9927 111.998 95.8819 112.19C95.7711 112.382 95.7076 112.598 95.6966 112.82C95.6966 113.223 95.9792 113.391 96.3339 113.187C96.5202 113.066 96.6751 112.903 96.786 112.711C96.8968 112.518 96.9603 112.302 96.9713 112.081C96.9713 111.672 96.6887 111.509 96.3339 111.714Z" fill="black"/>
<path d="M96.3339 121.117C96.1476 121.238 95.9927 121.401 95.8819 121.594C95.7711 121.786 95.7076 122.002 95.6966 122.224C95.6966 122.633 95.9792 122.825 96.3339 122.591C96.5202 122.47 96.6751 122.307 96.786 122.114C96.8968 121.922 96.9603 121.706 96.9713 121.484C96.9713 121.081 96.6887 120.913 96.3339 121.117Z" fill="black"/>
<path d="M90.4352 93.7662C96.6161 93.3453 98.3357 95.2213 102.412 98.3238C105.304 100.524 110.048 103.897 110.048 103.897C110.048 103.897 113.217 93.5858 113.145 92.215C113.061 90.5675 112.333 90.0444 111.942 88.3248C111.551 86.6052 111.521 85.4208 111.04 84.7173C110.559 84.0138 111.996 83.7312 112.664 84.591C113.331 85.4508 113.493 86.7255 113.866 86.4609C114.239 86.1964 114.323 83.4546 113.818 81.4825C113.313 79.5104 114.383 78.9272 114.84 79.5224C115.09 79.8396 115.306 80.1822 115.484 80.5446C115.914 80.3702 116.384 80.3151 116.843 80.3849C117.302 80.4547 117.734 80.647 118.093 80.9414C119.199 81.9936 120.258 83.605 120.498 86.5391C120.739 89.4732 119.428 91.8001 119.127 93.1109C118.688 95.0589 118.225 105.737 115.892 111.479C114.828 114.095 112.549 114.065 110.481 112.91L97.2895 105.533C93.3453 103.615 88.3248 96.6463 90.4352 93.7662Z" fill="#FFA8A7"/>
<path d="M91.355 93.7181C92.4224 93.4492 93.5333 93.3995 94.6205 93.5721C95.7077 93.7446 96.7486 94.1359 97.6802 94.7222C100.897 96.7124 109.82 103.477 109.82 103.477C109.82 103.477 111.497 98.919 111.744 98.0652C111.744 98.0652 115.123 100.152 118.388 99.412C118.388 99.412 117.786 107.174 116.584 110.65C115.381 114.125 114.119 114.227 111.696 113.656C109.272 113.085 95.7502 105.629 95.7502 105.629L91.355 93.7181Z" fill="url(#paint32_linear_1_124)"/>
<path opacity="0.1" d="M91.355 93.7181C92.4224 93.4492 93.5333 93.3995 94.6205 93.5721C95.7077 93.7446 96.7486 94.1359 97.6802 94.7222C100.897 96.7124 109.82 103.477 109.82 103.477C109.82 103.477 111.497 98.919 111.744 98.0652C111.744 98.0652 115.123 100.152 118.388 99.412C118.388 99.412 117.786 107.174 116.584 110.65C115.381 114.125 114.119 114.227 111.696 113.656C109.272 113.085 95.7502 105.629 95.7502 105.629L91.355 93.7181Z" fill="black"/>
<path d="M107.908 174.563C107.908 174.563 109.585 181.177 110.715 183.215C111.929 185.574 113.428 187.775 115.177 189.769C115.604 190.244 116.566 191.122 116.914 191.501C116.996 191.576 117.059 191.668 117.101 191.771C117.143 191.874 117.161 191.984 117.155 192.095C117.15 192.206 117.12 192.314 117.068 192.412C117.016 192.509 116.943 192.595 116.854 192.661C116.019 193.491 112.423 193.743 110.379 192.27C108.334 190.797 106.615 188.338 105.388 187.142C104.787 186.54 104.186 185.975 103.777 185.554C103.578 185.354 103.434 185.107 103.358 184.835C103.282 184.564 103.277 184.277 103.344 184.003C103.386 183.847 103.428 183.66 103.476 183.444C103.903 181.496 101.57 176.566 101.57 176.566C103.266 174.136 105.719 174.209 107.908 174.563Z" fill="#FFA8A7"/>
<path d="M103.236 185.969C103.187 186.3 103.227 186.638 103.35 186.949C103.548 187.394 104.823 188.152 105.478 188.482C106.232 188.868 106.846 189.48 107.234 190.232C108.048 191.679 109.269 192.854 110.746 193.611C112.745 194.425 114.945 194.61 117.053 194.14C119.674 193.617 119.855 192.06 119.855 192.06C119.855 192.06 119.969 190.599 119.307 190.382C118.646 190.166 103.236 185.969 103.236 185.969Z" fill="#263238"/>
<path d="M103.134 181.466C103.15 181.701 103.14 181.937 103.104 182.169C103.038 182.891 102.977 183.372 102.953 184.177C102.91 184.792 103.007 185.409 103.236 185.981C104.03 187.045 105.869 187.358 106.958 188.807C108.046 190.256 109.363 192.493 112.808 193.112C116.253 193.731 118.863 192.577 119.482 191.585C120.101 190.593 119.482 189.679 117.263 188.531C114.894 187.328 112.044 183.985 112.038 183.979C111.756 183.648 111.503 183.27 111.245 182.915C110.923 182.522 110.663 182.082 110.475 181.61C110.311 181.111 110.218 180.59 110.199 180.065C110.199 180.02 110.187 179.976 110.162 179.939C110.128 179.912 110.086 179.898 110.042 179.896C108.753 179.775 107.459 180.077 106.356 180.756C106.238 180.817 106.136 180.903 106.056 181.009C106.001 181.102 105.96 181.204 105.936 181.309C105.863 181.586 105.785 181.863 105.713 182.139C105.699 182.252 105.66 182.36 105.6 182.457C105.54 182.553 105.459 182.636 105.364 182.698C105.112 182.813 104.829 182.632 104.613 182.464C104.396 182.295 104.246 181.899 104.012 181.712C103.763 181.518 103.447 181.43 103.134 181.466Z" fill="#455A64"/>
<path d="M110.553 192.318C110.583 191.52 110.83 190.745 111.268 190.077C111.705 189.408 112.317 188.872 113.036 188.525C115.61 187.148 117.203 187.971 118.015 188.525C118.971 189.186 120.354 190.581 119.554 191.633C118.754 192.685 117.275 193.323 114.624 193.407C113.182 193.518 111.746 193.134 110.553 192.318Z" fill="#FAFAFA"/>
<path d="M72.9444 127.443C72.9444 130.341 73.233 139.883 76.2213 143.611C78.1753 146.016 79.7085 147.008 84.4104 150.224C89.5391 153.754 90.2125 154.397 91.4692 155.293C92.1915 155.754 92.815 156.353 93.3032 157.057C93.7915 157.761 94.1348 158.556 94.3131 159.394C94.752 161.69 95.1669 163.957 97.4096 168.713C99.1713 172.453 101.131 175.874 102.123 177.768C103.615 178.027 107.336 177.311 108.31 176.048C107.769 173.216 104.703 153.146 103.362 150.194C102.021 147.242 91.5834 138.289 91.5834 138.289C91.5834 138.289 90.7597 132.878 91.5834 129.373L72.9444 127.443Z" fill="#37474F"/>
<path d="M124.551 166.092C124.551 166.092 126.228 172.675 127.359 174.744C128.572 177.095 130.07 179.288 131.82 181.273C132.241 181.748 133.203 182.626 133.551 183.005C133.634 183.08 133.698 183.172 133.74 183.275C133.783 183.378 133.802 183.488 133.796 183.599C133.79 183.71 133.76 183.819 133.707 183.917C133.655 184.014 133.581 184.099 133.491 184.165C132.656 184.995 129.06 185.254 127.016 183.775C124.972 182.295 123.252 179.842 122.031 178.646C121.43 178.045 120.829 177.479 120.42 177.059C120.22 176.86 120.074 176.612 119.998 176.34C119.923 176.068 119.919 175.781 119.987 175.507L120.113 174.948C120.546 173 118.213 168.07 118.213 168.07C119.897 165.641 122.362 165.719 124.551 166.092Z" fill="#FFA8A7"/>
<path d="M119.897 177.497C119.852 177.828 119.891 178.166 120.011 178.477C120.209 178.922 121.49 179.68 122.139 180.011C122.894 180.397 123.51 181.008 123.901 181.76C124.714 183.207 125.932 184.384 127.406 185.145C129.407 185.954 131.607 186.136 133.714 185.669C136.335 185.145 136.521 183.588 136.521 183.588C136.521 183.588 136.63 182.127 135.968 181.911C135.307 181.694 119.897 177.497 119.897 177.497Z" fill="#263238"/>
<path d="M119.77 172.994C119.797 173.228 119.797 173.464 119.77 173.697C119.698 174.425 119.644 174.9 119.614 175.706C119.571 176.321 119.667 176.937 119.897 177.509C120.69 178.574 122.53 178.892 123.618 180.335C124.707 181.778 126.023 184.021 129.469 184.64C132.914 185.26 135.523 184.111 136.143 183.113C136.762 182.115 136.143 181.207 133.93 180.059C131.525 178.856 128.705 175.513 128.705 175.507C128.416 175.177 128.164 174.798 127.905 174.443C127.587 174.049 127.33 173.609 127.142 173.138C126.976 172.639 126.88 172.119 126.859 171.593C126.863 171.548 126.85 171.503 126.823 171.467C126.788 171.441 126.746 171.426 126.703 171.425C125.414 171.307 124.121 171.609 123.017 172.285C122.901 172.345 122.8 172.431 122.723 172.537C122.665 172.629 122.624 172.731 122.602 172.838C122.524 173.114 122.452 173.391 122.374 173.673C122.296 173.956 122.236 174.136 122.025 174.227C121.815 174.317 121.496 174.16 121.274 173.992C121.051 173.824 120.907 173.427 120.672 173.247C120.546 173.146 120.402 173.072 120.247 173.029C120.092 172.985 119.93 172.974 119.77 172.994Z" fill="#455A64"/>
<path d="M127.196 183.847C127.223 183.049 127.469 182.273 127.905 181.604C128.342 180.936 128.953 180.399 129.673 180.053C132.246 178.676 133.846 179.5 134.652 180.053C135.614 180.714 136.996 182.109 136.191 183.161C135.385 184.214 133.912 184.851 131.26 184.965C129.817 185.069 128.383 184.674 127.196 183.847Z" fill="#FAFAFA"/>
<path d="M74.2011 129.427C73.5999 132.956 90.1345 140.063 90.1345 140.063C90.1345 140.063 92.4012 140.911 97.0309 143.172C100.724 144.909 104.315 146.854 107.787 148.998C109.092 149.804 110.114 150.254 110.493 152.221C110.932 154.517 110.734 155.534 113.644 160.945C115.598 164.588 117.78 167.426 118.772 169.32C120.264 169.579 123.985 168.863 124.959 167.601C124.424 164.769 121.352 144.699 120.011 141.747C118.67 138.794 98.4198 127.136 98.4198 127.136L74.2011 129.427Z" fill="#37474F"/>
<path d="M97.133 143.226L93.0685 137.73C93.0685 137.73 97.4758 135.073 98.4017 130.341C98.3953 131.766 98.0746 133.173 97.4625 134.461C96.8503 135.748 95.9619 136.885 94.8603 137.79L97.133 143.226Z" fill="#263238"/>
<path d="M82.0176 93.634C76.8467 94.59 73.4015 95.7023 72.4275 96.6403C70.2329 101.144 73.4977 119.266 73.4977 119.266L72.7943 123.288L71.5557 130.335C77.1414 135.055 95.3354 133.714 98.3838 127.106C98.3838 127.106 98.3838 106.266 97.9689 102.454C97.53 98.0713 95.149 93.4836 89.2928 93.1409L82.0176 93.634Z" fill="#F5F5F5"/>
<path d="M78.2777 128.441C76.7806 126.144 76.5221 120.294 76.5221 120.294C76.5221 120.294 76.6784 105.082 76.0771 101.456L71.8383 107.15C72.1892 111.211 72.7511 115.251 73.5218 119.254L72.8183 123.276L71.9946 127.972L71.5797 130.323C71.7421 130.461 71.9224 130.587 72.1028 130.72L72.2892 130.834C72.4155 130.918 72.5477 131.002 72.686 131.08L72.9205 131.213L73.3294 131.423L73.5879 131.543L74.0389 131.736L74.2914 131.838L74.8926 132.042L75.061 132.102L75.8547 132.331L76.0771 132.385L76.6784 132.535L76.997 132.595C77.1774 132.638 77.3638 132.674 77.5502 132.704L77.8929 132.764L78.4641 132.848L78.8068 132.896C79.0173 132.926 79.2337 132.944 79.4442 132.968L79.7388 132.998C80.0514 133.028 80.34 133.052 80.6828 133.07H80.815C81.0856 133.07 81.3562 133.101 81.6328 133.107H83.0036H83.6049H84.0077L84.609 133.07H84.9878L85.7213 133.01H85.9678C86.2865 133.01 86.6052 132.938 86.9238 132.896L87.2605 132.848L87.8919 132.758L88.2827 132.686L88.8418 132.583L89.2447 132.499L89.7858 132.379L90.1766 132.289L90.7418 132.139L91.0785 132.048C91.3611 131.97 91.6437 131.88 91.9203 131.79L92.1668 131.706L92.7681 131.495L93.0987 131.363L93.5677 131.171L93.9044 131.02L94.3373 130.816L94.65 130.659L95.0709 130.425L95.3475 130.269C95.5218 130.166 95.6842 130.058 95.8405 129.95L95.9968 129.854C87.7776 132.517 79.7688 130.756 78.2777 128.441Z" fill="#EBEBEB"/>
<path d="M81.236 78.3439C81.1957 80.3618 81.9585 82.3131 83.3566 83.7687C84.7548 85.2244 86.6737 86.0651 88.6916 86.1062C92.8042 86.1062 95.2453 82.5347 96.1412 78.3439C97.7887 70.6779 92.8042 70.5817 88.6916 70.5817C86.6737 70.6227 84.7548 71.4635 83.3566 72.9191C81.9585 74.3747 81.1957 76.326 81.236 78.3439Z" fill="#263238"/>
<path d="M77.4359 81.4825C77.4359 81.4825 78.5782 87.0802 79.0352 88.0002C79.3292 88.5693 79.8341 89.0009 80.4421 89.2027L80.364 85.2644L77.4359 81.4825Z" fill="#263238"/>
<path d="M78.867 73.4738C78.867 73.4738 78.0493 73.2693 77.1775 74.6282C76.4319 75.7946 76.2636 78.4101 77.436 81.4825L79.5885 81.7411L78.867 73.4738Z" fill="#263238"/>
<path d="M78.0792 74.6041L75.4397 74.6522C75.4177 74.4799 75.4323 74.305 75.4823 74.1386C75.5324 73.9723 75.6168 73.8184 75.7302 73.6869C75.8436 73.5553 75.9834 73.4491 76.1405 73.3751C76.2976 73.3011 76.4686 73.261 76.6422 73.2573C77.0061 73.2635 77.3547 73.4048 77.6203 73.6537C77.8859 73.9026 78.0494 74.2414 78.0792 74.6041Z" fill="#263238"/>
<path d="M77.7546 73.9788L75.7945 72.0969C75.9082 71.9645 76.048 71.857 76.2051 71.7811C76.3622 71.7052 76.5333 71.6625 76.7077 71.6557C76.8821 71.649 77.056 71.6782 77.2185 71.7417C77.3811 71.8052 77.5288 71.9016 77.6524 72.0247C77.9118 72.278 78.0664 72.6197 78.0853 72.9818C78.1042 73.3439 77.9862 73.6998 77.7546 73.9788Z" fill="#263238"/>
<path d="M80.2136 81.7471C79.7807 82.0116 79.1674 81.1458 78.6323 80.5446C78.0971 79.9433 76.4317 79.4142 75.5659 81.3202C74.7 83.2262 76.1671 85.1021 77.4177 85.7214C79.6364 86.8277 80.3459 85.2164 80.3459 85.2164L80.5262 94.0789C81.6325 97.1453 90.0141 97.7406 88.1983 93.8444V91.1628C89.2469 91.3372 90.3117 91.3936 91.3729 91.3311C93.1106 91.0486 94.1988 89.6236 94.7279 87.6695C95.5697 84.5309 95.8944 81.9936 95.1729 75.8187C94.3912 69.0485 86.8274 68.9764 82.7449 71.652C78.6623 74.3276 80.2136 81.7471 80.2136 81.7471Z" fill="#FFA8A7"/>
<path d="M89.6594 74.7725C87.8556 74.5921 86.0518 74.2254 84.248 74.0931C83.859 74.0447 83.4645 74.063 83.0816 74.1472C81.6927 74.52 81.8791 76.1313 81.6506 77.2617C81.2718 79.1978 80.9592 82.4866 80.2256 82.4987C80.0092 82.4987 79.1854 81.0797 78.6443 80.5686C78.3514 80.129 78.1849 79.6173 78.1633 79.0895C78.025 78.2838 77.9529 77.4661 77.8927 76.6845C77.8386 75.9991 77.7725 75.3016 77.7725 74.6102C77.739 73.8321 77.7996 73.0528 77.9529 72.2893C78.1276 71.6392 78.4601 71.0424 78.9209 70.5517L79.0592 70.4014C79.9668 69.4526 81.068 68.7103 82.2879 68.2248C84.0443 67.5625 85.8872 67.1574 87.7594 67.0223C89.6274 66.8916 91.4877 66.6668 93.3331 66.3489C93.4392 66.3191 93.5515 66.3191 93.6577 66.3489C93.7312 66.3904 93.7933 66.4494 93.8384 66.5208C93.8836 66.5921 93.9103 66.6735 93.9163 66.7577C93.992 67.1859 93.9446 67.6268 93.7797 68.0292C93.6147 68.4315 93.3389 68.7787 92.9843 69.0305C94.2289 69.1267 95.6659 68.4773 96.8684 68.1526C97.0612 68.0744 97.2769 68.0744 97.4697 68.1526C97.5864 68.2415 97.6708 68.3661 97.7102 68.5074C97.7955 68.8335 97.8058 69.1748 97.7403 69.5055C97.6265 70.4947 97.2577 71.4374 96.67 72.2412C95.7392 73.4518 94.4248 74.3103 92.9422 74.6763C91.8592 74.8752 90.7522 74.9076 89.6594 74.7725Z" fill="#263238"/>
<path d="M88.2103 91.1628C88.2103 91.1628 84.3382 90.3511 82.9854 89.5995C82.1814 89.1579 81.528 88.4857 81.1094 87.6695C81.3147 88.4884 81.6761 89.2601 82.1737 89.9422C83.1657 91.265 88.1862 92.233 88.1862 92.233L88.2103 91.1628Z" fill="#F28F8F"/>
<path d="M87.2783 80.737C87.2655 80.8869 87.2093 81.0298 87.1167 81.1484C87.0241 81.267 86.8989 81.356 86.7566 81.4047C86.6142 81.4534 86.4607 81.4596 86.3149 81.4227C86.169 81.3857 86.0371 81.3071 85.9351 81.1964C85.8332 81.0858 85.7656 80.9478 85.7407 80.7994C85.7157 80.6511 85.7344 80.4986 85.7946 80.3607C85.8548 80.2228 85.9537 80.1054 86.0795 80.0227C86.2052 79.9401 86.3523 79.8958 86.5027 79.8952C86.6091 79.8991 86.7136 79.924 86.8103 79.9685C86.907 80.0129 86.9939 80.0761 87.066 80.1544C87.1381 80.2327 87.194 80.3245 87.2304 80.4244C87.2669 80.5244 87.2832 80.6307 87.2783 80.737Z" fill="#263238"/>
<path d="M86.0337 77.3879L84.3743 78.3439C84.2546 78.1079 84.2278 77.8356 84.299 77.5807C84.3702 77.3258 84.5344 77.1069 84.7591 76.9671C84.8694 76.906 84.9911 76.8684 85.1166 76.8566C85.2421 76.8448 85.3688 76.8592 85.4885 76.8987C85.6082 76.9382 85.7184 77.0021 85.8123 77.0863C85.9061 77.1705 85.9815 77.2732 86.0337 77.3879Z" fill="#263238"/>
<path d="M87.8555 86.3167L89.6292 87.0081C89.5935 87.129 89.5332 87.2412 89.4523 87.3379C89.3713 87.4345 89.2713 87.5135 89.1585 87.5698C89.0458 87.6262 88.9226 87.6588 88.7967 87.6656C88.6708 87.6724 88.5449 87.6533 88.4267 87.6094C88.1871 87.5043 87.9956 87.3133 87.8898 87.074C87.7841 86.8347 87.7719 86.5645 87.8555 86.3167Z" fill="#F28F8F"/>
<path d="M94.3972 78.1035L92.8821 76.9009C92.9503 76.7952 93.04 76.7051 93.1453 76.6363C93.2507 76.5676 93.3693 76.5218 93.4935 76.5019C93.6177 76.4821 93.7447 76.4886 93.8662 76.5211C93.9878 76.5536 94.1011 76.6113 94.1988 76.6905C94.3976 76.8619 94.5274 77.0997 94.5639 77.3597C94.6004 77.6196 94.5411 77.8839 94.3972 78.1035Z" fill="#263238"/>
<path d="M93.7298 80.5085C93.717 80.6584 93.6608 80.8013 93.5682 80.9199C93.4755 81.0385 93.3504 81.1275 93.208 81.1762C93.0657 81.2249 92.9122 81.2311 92.7664 81.1942C92.6205 81.1572 92.4886 81.0786 92.3866 80.9679C92.2847 80.8573 92.2171 80.7193 92.1921 80.571C92.1672 80.4226 92.1859 80.2701 92.2461 80.1322C92.3062 79.9943 92.4052 79.8769 92.531 79.7942C92.6567 79.7116 92.8037 79.6673 92.9542 79.6667C93.0606 79.6706 93.1651 79.6955 93.2618 79.74C93.3585 79.7844 93.4454 79.8476 93.5175 79.9259C93.5896 80.0042 93.6455 80.096 93.6819 80.1959C93.7184 80.2959 93.7347 80.4022 93.7298 80.5085Z" fill="#263238"/>
<path d="M89.5753 79.8591L89.6654 84.7594L92.4493 84.122L89.5753 79.8591Z" fill="#F28F8F"/>
<path d="M74.8025 95.4377C70.0706 96.2554 68.0323 97.5662 66.8358 102.797C66.1564 105.761 63.2763 117.227 62.9998 120.883C62.7953 123.547 68.3389 136.876 71.7962 141.879C74.8566 146.31 76.2755 147.41 78.5904 147.891C80.9052 148.372 84.6691 146.334 83.4846 144.735C82.3002 143.136 79.2097 140.905 79.1616 140.761C79.1135 140.616 81.0135 141.494 82.1979 141.62C83.3824 141.747 83.9536 141.368 84.0318 140.761C84.1099 140.153 83.5387 140.256 82.4024 139.847C81.266 139.438 79.5704 137.742 78.386 137.219C77.0036 136.709 75.8525 135.716 75.1452 134.423C74.3215 132.86 71.2971 120.294 71.2971 120.294L74.6702 108.509C74.6702 108.509 77.8088 100.122 74.8025 95.4377Z" fill="#FFA8A7"/>
<path d="M75.3134 95.2634C75.3134 95.2634 69.9622 95.1191 68.0442 98.2697C66.1262 101.42 62.2541 119.981 62.5006 121.364C62.7471 122.747 67.1784 133.125 67.1784 133.125C69.0786 131.55 71.4034 130.575 73.8584 130.323L71.5796 120.294L75.9748 105.262C75.9748 105.262 77.5621 99.1776 75.3134 95.2634Z" fill="url(#paint33_linear_1_124)"/>
<path opacity="0.1" d="M75.3134 95.2634C75.3134 95.2634 69.9622 95.1191 68.0442 98.2697C66.1262 101.42 62.2541 119.981 62.5006 121.364C62.7471 122.747 67.1784 133.125 67.1784 133.125C69.0786 131.55 71.4034 130.575 73.8584 130.323L71.5796 120.294L75.9748 105.262C75.9748 105.262 77.5621 99.1776 75.3134 95.2634Z" fill="black"/>
<defs>
<linearGradient id="paint0_linear_1_124" x1="139.519" y1="98.4449" x2="139.519" y2="214.963" gradientUnits="userSpaceOnUse">
<stop stop-color="#8856D7"/>
<stop offset="1" stop-color="#F59D7C"/>
</linearGradient>
<linearGradient id="paint1_linear_1_124" x1="132.767" y1="39.3594" x2="165.433" y2="43.3819" gradientUnits="userSpaceOnUse">
<stop stop-color="#8856D7"/>
<stop offset="1" stop-color="#F59D7C"/>
</linearGradient>
<linearGradient id="paint2_linear_1_124" x1="180.893" y1="29.2452" x2="192.144" y2="56.4087" gradientUnits="userSpaceOnUse">
<stop stop-color="#8856D7"/>
<stop offset="1" stop-color="#F59D7C"/>
</linearGradient>
<linearGradient id="paint3_linear_1_124" x1="168.13" y1="0" x2="168.13" y2="53.9449" gradientUnits="userSpaceOnUse">
<stop stop-color="#8856D7"/>
<stop offset="1" stop-color="#F59D7C"/>
</linearGradient>
<linearGradient id="paint4_linear_1_124" x1="85.8258" y1="45.4287" x2="85.8258" y2="60.9787" gradientUnits="userSpaceOnUse">
<stop stop-color="#8856D7"/>
<stop offset="1" stop-color="#F59D7C"/>
</linearGradient>
<linearGradient id="paint5_linear_1_124" x1="84.7118" y1="35.1989" x2="84.7118" y2="54.586" gradientUnits="userSpaceOnUse">
<stop stop-color="#8856D7"/>
<stop offset="1" stop-color="#F59D7C"/>
</linearGradient>
<linearGradient id="paint6_linear_1_124" x1="83.0557" y1="23.4742" x2="83.0557" y2="49.1874" gradientUnits="userSpaceOnUse">
<stop stop-color="#8856D7"/>
<stop offset="1" stop-color="#F59D7C"/>
</linearGradient>
<linearGradient id="paint7_linear_1_124" x1="87.14" y1="47.3251" x2="87.14" y2="60.9735" gradientUnits="userSpaceOnUse">
<stop stop-color="#8856D7"/>
<stop offset="1" stop-color="#F59D7C"/>
</linearGradient>
<linearGradient id="paint8_linear_1_124" x1="86.0291" y1="37.0871" x2="86.0291" y2="54.5919" gradientUnits="userSpaceOnUse">
<stop stop-color="#8856D7"/>
<stop offset="1" stop-color="#F59D7C"/>
</linearGradient>
<linearGradient id="paint9_linear_1_124" x1="84.4812" y1="25.61" x2="84.4812" y2="49.1874" gradientUnits="userSpaceOnUse">
<stop stop-color="#8856D7"/>
<stop offset="1" stop-color="#F59D7C"/>
</linearGradient>
<linearGradient id="paint10_linear_1_124" x1="237.464" y1="3.51788" x2="237.464" y2="33.3873" gradientUnits="userSpaceOnUse">
<stop stop-color="#8856D7"/>
<stop offset="1" stop-color="#F59D7C"/>
</linearGradient>
<linearGradient id="paint11_linear_1_124" x1="234.764" y1="6.83765" x2="234.764" y2="33.182" gradientUnits="userSpaceOnUse">
<stop stop-color="#8856D7"/>
<stop offset="1" stop-color="#F59D7C"/>
</linearGradient>
<linearGradient id="paint12_linear_1_124" x1="244.772" y1="12.5422" x2="244.772" y2="33.3826" gradientUnits="userSpaceOnUse">
<stop stop-color="#8856D7"/>
<stop offset="1" stop-color="#F59D7C"/>
</linearGradient>
<linearGradient id="paint13_linear_1_124" x1="237.464" y1="35.8655" x2="237.464" y2="65.735" gradientUnits="userSpaceOnUse">
<stop stop-color="#8856D7"/>
<stop offset="1" stop-color="#F59D7C"/>
</linearGradient>
<linearGradient id="paint14_linear_1_124" x1="234.764" y1="39.1833" x2="234.764" y2="65.5318" gradientUnits="userSpaceOnUse">
<stop stop-color="#8856D7"/>
<stop offset="1" stop-color="#F59D7C"/>
</linearGradient>
<linearGradient id="paint15_linear_1_124" x1="244.772" y1="44.89" x2="244.772" y2="65.7303" gradientUnits="userSpaceOnUse">
<stop stop-color="#8856D7"/>
<stop offset="1" stop-color="#F59D7C"/>
</linearGradient>
<linearGradient id="paint16_linear_1_124" x1="237.464" y1="68.2145" x2="237.464" y2="98.0754" gradientUnits="userSpaceOnUse">
<stop stop-color="#8856D7"/>
<stop offset="1" stop-color="#F59D7C"/>
</linearGradient>
<linearGradient id="paint17_linear_1_124" x1="234.764" y1="71.531" x2="234.764" y2="97.8769" gradientUnits="userSpaceOnUse">
<stop stop-color="#8856D7"/>
<stop offset="1" stop-color="#F59D7C"/>
</linearGradient>
<linearGradient id="paint18_linear_1_124" x1="244.772" y1="77.2376" x2="244.772" y2="98.0769" gradientUnits="userSpaceOnUse">
<stop stop-color="#8856D7"/>
<stop offset="1" stop-color="#F59D7C"/>
</linearGradient>
<linearGradient id="paint19_linear_1_124" x1="106.806" y1="101.3" x2="106.806" y2="141.019" gradientUnits="userSpaceOnUse">
<stop stop-color="#8856D7"/>
<stop offset="1" stop-color="#F59D7C"/>
</linearGradient>
<linearGradient id="paint20_linear_1_124" x1="68.9994" y1="122.645" x2="68.9994" y2="162.364" gradientUnits="userSpaceOnUse">
<stop stop-color="#8856D7"/>
<stop offset="1" stop-color="#F59D7C"/>
</linearGradient>
<linearGradient id="paint21_linear_1_124" x1="143.321" y1="79.9247" x2="143.321" y2="119.512" gradientUnits="userSpaceOnUse">
<stop stop-color="#8856D7"/>
<stop offset="1" stop-color="#F59D7C"/>
</linearGradient>
<linearGradient id="paint22_linear_1_124" x1="80.6922" y1="160.229" x2="80.6922" y2="185.83" gradientUnits="userSpaceOnUse">
<stop stop-color="#8856D7"/>
<stop offset="1" stop-color="#F59D7C"/>
</linearGradient>
<linearGradient id="paint23_linear_1_124" x1="64.3711" y1="150.928" x2="64.3711" y2="176.528" gradientUnits="userSpaceOnUse">
<stop stop-color="#8856D7"/>
<stop offset="1" stop-color="#F59D7C"/>
</linearGradient>
<linearGradient id="paint24_linear_1_124" x1="154.96" y1="117.36" x2="154.96" y2="142.96" gradientUnits="userSpaceOnUse">
<stop stop-color="#8856D7"/>
<stop offset="1" stop-color="#F59D7C"/>
</linearGradient>
<linearGradient id="paint25_linear_1_124" x1="138.623" y1="108.052" x2="138.623" y2="133.653" gradientUnits="userSpaceOnUse">
<stop stop-color="#8856D7"/>
<stop offset="1" stop-color="#F59D7C"/>
</linearGradient>
<linearGradient id="paint26_linear_1_124" x1="94.6143" y1="75.1335" x2="94.6143" y2="129.456" gradientUnits="userSpaceOnUse">
<stop stop-color="#8856D7"/>
<stop offset="1" stop-color="#F59D7C"/>
</linearGradient>
<linearGradient id="paint27_linear_1_124" x1="94.6144" y1="84.5562" x2="94.6144" y2="138.901" gradientUnits="userSpaceOnUse">
<stop stop-color="#8856D7"/>
<stop offset="1" stop-color="#F59D7C"/>
</linearGradient>
<linearGradient id="paint28_linear_1_124" x1="94.6144" y1="93.9839" x2="94.6144" y2="148.305" gradientUnits="userSpaceOnUse">
<stop stop-color="#8856D7"/>
<stop offset="1" stop-color="#F59D7C"/>
</linearGradient>
<linearGradient id="paint29_linear_1_124" x1="116.72" y1="114.095" x2="116.72" y2="167.071" gradientUnits="userSpaceOnUse">
<stop stop-color="#8856D7"/>
<stop offset="1" stop-color="#F59D7C"/>
</linearGradient>
<linearGradient id="paint30_linear_1_124" x1="108.579" y1="109.417" x2="108.579" y2="162.393" gradientUnits="userSpaceOnUse">
<stop stop-color="#8856D7"/>
<stop offset="1" stop-color="#F59D7C"/>
</linearGradient>
<linearGradient id="paint31_linear_1_124" x1="100.423" y1="104.709" x2="100.423" y2="157.668" gradientUnits="userSpaceOnUse">
<stop stop-color="#8856D7"/>
<stop offset="1" stop-color="#F59D7C"/>
</linearGradient>
<linearGradient id="paint32_linear_1_124" x1="104.871" y1="93.4714" x2="104.871" y2="113.918" gradientUnits="userSpaceOnUse">
<stop stop-color="#8856D7"/>
<stop offset="1" stop-color="#F59D7C"/>
</linearGradient>
<linearGradient id="paint33_linear_1_124" x1="69.504" y1="95.2624" x2="69.504" y2="133.125" gradientUnits="userSpaceOnUse">
<stop stop-color="#8856D7"/>
<stop offset="1" stop-color="#F59D7C"/>
</linearGradient>
</defs>
</svg>
